<svg xmlns="http://www.w3.org/2000/svg" width="33.899" height="40" viewBox="0 0 33.899 40">
    <defs>
        <style>
            .cls-1{fill:#fff}
        </style>
    </defs>
    <g id="shopping-bag" transform="translate(-15.358)">
        <g id="Group_248" data-name="Group 248" transform="translate(27.477)">
            <g id="Group_247" data-name="Group 247">
                <path id="Path_133" d="M87.169 4.982a5.81 5.81 0 0 0-10.444-2.6.683.683 0 1 0 1.1.806 4.443 4.443 0 0 1 7.987 1.983.684.684 0 0 0 .676.587.732.732 0 0 0 .1-.007.684.684 0 0 0 .581-.769z" class="cls-1" data-name="Path 133" transform="translate(-76.593)"/>
            </g>
        </g>
        <g id="Group_250" data-name="Group 250" transform="translate(16.725 8.804)">
            <g id="Group_249" data-name="Group 249">
                <path id="Path_134" d="M53.253 48.121L51.221 44.7a.675.675 0 0 0-.581-.332h-1.948a.683.683 0 0 0 0 1.367h1.564l1.219 2.05H24.059l1.219-2.05H26a.683.683 0 0 0 0-1.367h-1.1a.675.675 0 0 0-.581.332l-2.032 3.417a.689.689 0 0 0-.009.689.676.676 0 0 0 .589.347h29.81a.676.676 0 0 0 .59-.347.689.689 0 0 0-.014-.685z" class="cls-1" data-name="Path 134" transform="translate(-22.185 -44.372)"/>
            </g>
        </g>
        <g id="Group_252" data-name="Group 252" transform="translate(33.103 3.829)">
            <g id="Group_251" data-name="Group 251">
                <path id="Path_135" d="M116.627 21.628a.682.682 0 0 0-.425-.305l-9.316-2.179a.683.683 0 0 0-.821.51l-.7 3a.683.683 0 0 0 1.331.311l.547-2.338 7.985 1.868-1.255 5.365a.683.683 0 0 0 .51.821.691.691 0 0 0 .157.018.682.682 0 0 0 .664-.528l1.411-6.03a.681.681 0 0 0-.088-.513z" class="cls-1" data-name="Path 135" transform="translate(-105.343 -19.126)"/>
            </g>
        </g>
        <g id="Group_254" data-name="Group 254" transform="translate(19.39 2.077)">
            <g id="Group_253" data-name="Group 253">
                <path id="Path_136" d="M48.909 16.244l-.623-5.267a.684.684 0 0 0-.759-.6L36.1 11.729a.684.684 0 0 0-.6.759l1.038 8.784a.684.684 0 0 0 .678.6.747.747 0 0 0 .081 0 .684.684 0 0 0 .6-.759l-.958-8.106 10.071-1.191.542 4.588a.683.683 0 0 0 1.357-.16z" class="cls-1" data-name="Path 136" transform="translate(-35.494 -10.374)"/>
            </g>
        </g>
        <g id="Group_256" data-name="Group 256" transform="translate(24.374 6.498)">
            <g id="Group_255" data-name="Group 255">
                <path id="Path_137" d="M74.711 38.933l-1.356-5.641a.683.683 0 0 0-.824-.5l-11.01 2.644a.684.684 0 0 0-.5.824l.678 2.819a.683.683 0 1 0 1.329-.32L62.5 36.6l9.681-2.328 1.2 4.976a.684.684 0 0 0 1.329-.32z" class="cls-1" data-name="Path 137" transform="translate(-60.997 -32.769)"/>
            </g>
        </g>
        <g id="Group_258" data-name="Group 258" transform="translate(15.359 12.302)">
            <g id="Group_257" data-name="Group 257">
                <path id="Path_138" d="M47.9 62.082a.677.677 0 0 0-.677-.641h-29.83a.677.677 0 0 0-.677.641l-1.357 26.347a.676.676 0 0 0 .677.71h32.543a.676.676 0 0 0 .678-.71zM16.75 87.788l1.286-25h28.543l1.286 25z" class="cls-1" data-name="Path 138" transform="translate(-15.359 -61.441)"/>
            </g>
        </g>
        <g id="Group_260" data-name="Group 260" transform="translate(35.337 14.902)">
            <g id="Group_259" data-name="Group 259">
                <path id="Path_139" d="M118.1 75.093a2.05 2.05 0 1 0 2.05 2.05 2.052 2.052 0 0 0-2.05-2.05zm0 2.734a.683.683 0 1 1 .683-.683.684.684 0 0 1-.683.683z" class="cls-1" data-name="Path 139" transform="translate(-116.052 -75.093)"/>
            </g>
        </g>
        <g id="Group_262" data-name="Group 262" transform="translate(25.178 14.902)">
            <g id="Group_261" data-name="Group 261">
                <path id="Path_140" d="M66.9 75.093a2.05 2.05 0 1 0 2.05 2.05 2.052 2.052 0 0 0-2.05-2.05zm0 2.734a.683.683 0 1 1 .683-.683.684.684 0 0 1-.683.683z" class="cls-1" data-name="Path 140" transform="translate(-64.852 -75.093)"/>
            </g>
        </g>
        <g id="Group_264" data-name="Group 264" transform="translate(26.499 16.903)">
            <g id="Group_263" data-name="Group 263">
                <path id="Path_141" d="M82.614 85.333h-.053a.684.684 0 0 0-.683.683.676.676 0 0 0 .053.263v3.5a4.442 4.442 0 1 1-8.884 0v-3.762a.683.683 0 0 0-1.367 0v3.759a5.809 5.809 0 1 0 11.618 0v-3.759a.684.684 0 0 0-.684-.684z" class="cls-1" data-name="Path 141" transform="translate(-71.679 -85.333)"/>
            </g>
        </g>
    </g>
</svg>
