<?xml version="1.0" encoding="utf-8"?>
<!-- Generator: Adobe Illustrator 24.3.0, SVG Export Plug-In . SVG Version: 6.00 Build 0)  -->
<svg version="1.1" id="Layer_1" xmlns="http://www.w3.org/2000/svg" xmlns:xlink="http://www.w3.org/1999/xlink" x="0px" y="0px"
	 viewBox="0 0 25 25" style="enable-background:new 0 0 25 25;" xml:space="preserve">
<style type="text/css">
	.st0{fill:#00B601;}
	.st1{fill:none;}
	.st2{fill:none;stroke:#00B601;stroke-width:2;}
</style>
<g id="Group_463" transform="translate(-315 -466.902)">
	<path id="dollar-currency-symbol" class="st0" d="M332.5,482.39c0.06-1.27-0.55-2.48-1.6-3.2c-0.87-0.54-1.82-0.94-2.81-1.19
		c-2.03-0.61-2.62-0.94-2.62-1.91c0-1.08,1.4-1.47,2.61-1.47c0.88,0,1.75,0.23,2.51,0.68l1.24-1.93c-0.93-0.56-1.97-0.9-3.04-1v-1.8
		h-2.29v1.92c-2.04,0.45-3.32,1.78-3.32,3.59c-0.04,1.2,0.56,2.33,1.57,2.99c0.83,0.51,1.74,0.88,2.68,1.11
		c1.99,0.6,2.8,0.97,2.79,2.18v0.01c0,1.02-1.35,1.38-2.51,1.38c-1.1,0-2.16-0.43-2.96-1.19l-1.66,1.57
		c0.92,0.93,2.11,1.56,3.41,1.79v1.87h2.29v-1.84C331.04,485.66,332.5,484.3,332.5,482.39z"/>
	<g id="Ellipse_29" transform="translate(315 466.902)">
		<circle class="st1" cx="12.5" cy="12.5" r="12.5"/>
		<circle class="st2" cx="12.5" cy="12.5" r="11.5"/>
	</g>
</g>
</svg>
