<svg xmlns="http://www.w3.org/2000/svg" xmlns:xlink="http://www.w3.org/1999/xlink" version="1.1" style="enable-background:new 0 0 384.97 384.97;" xml:space="preserve" width="384.97" height="384.97"><rect id="backgroundrect" width="100%" height="100%" x="0" y="0" fill="none" stroke="none"/>
















<g class="currentLayer" style=""><title>Layer 1</title><g id="svg_1" class="" fill-opacity="1" fill="#ff7b14">
	<g id="Menu_1_" fill="#ff7b14">
		<path d="M12.03,120.303h360.909c6.641,0,12.03-5.39,12.03-12.03c0-6.641-5.39-12.03-12.03-12.03H12.03    c-6.641,0-12.03,5.39-12.03,12.03C0,114.913,5.39,120.303,12.03,120.303z" id="svg_2" fill="#ff7b14"/>
		<path d="M372.939,180.455H12.03c-6.641,0-12.03,5.39-12.03,12.03s5.39,12.03,12.03,12.03h360.909c6.641,0,12.03-5.39,12.03-12.03    S379.58,180.455,372.939,180.455z" id="svg_3" fill="#ff7b14"/>
		<path d="M372.939,264.667H132.333c-6.641,0-12.03,5.39-12.03,12.03c0,6.641,5.39,12.03,12.03,12.03h240.606    c6.641,0,12.03-5.39,12.03-12.03C384.97,270.056,379.58,264.667,372.939,264.667z" id="svg_4" fill="#ff7b14"/>
	</g>
	<g id="svg_5" fill="#ff7b14">
	</g>
	<g id="svg_6" fill="#ff7b14">
	</g>
	<g id="svg_7" fill="#ff7b14">
	</g>
	<g id="svg_8" fill="#ff7b14">
	</g>
	<g id="svg_9" fill="#ff7b14">
	</g>
	<g id="svg_10" fill="#ff7b14">
	</g>
</g><g id="svg_11">
</g><g id="svg_12">
</g><g id="svg_13">
</g><g id="svg_14">
</g><g id="svg_15">
</g><g id="svg_16">
</g><g id="svg_17">
</g><g id="svg_18">
</g><g id="svg_19">
</g><g id="svg_20">
</g><g id="svg_21">
</g><g id="svg_22">
</g><g id="svg_23">
</g><g id="svg_24">
</g><g id="svg_25">
</g></g></svg>