<svg xmlns="http://www.w3.org/2000/svg" width="22" height="16.5" viewBox="0 0 22 16.5">
  <path id="email" d="M19.938-16.5H2.063A2.062,2.062,0,0,0,0-14.437V-2.062A2.062,2.062,0,0,0,2.063,0H19.938A2.062,2.062,0,0,0,22-2.062V-14.437A2.062,2.062,0,0,0,19.938-16.5Zm0,2.063v1.753c-.963.785-2.5,2-5.783,4.576C13.431-7.539,12-6.172,11-6.188c-1,.016-2.431-1.352-3.154-1.921C4.562-10.679,3.026-11.9,2.063-12.684v-1.753ZM2.063-2.062v-7.975c.985.784,2.381,1.885,4.509,3.551C7.511-5.747,9.155-4.115,11-4.125c1.835.01,3.459-1.6,4.428-2.361,2.128-1.666,3.525-2.767,4.509-3.551v7.975Z" transform="translate(0 16.5)" fill="#707070"/>
</svg>
