<svg xmlns="http://www.w3.org/2000/svg" width="16.003" height="16" viewBox="0 0 16.003 16">
  <path id="Path_166" data-name="Path 166" d="M1.877-7.482a4.1,4.1,0,0,0-4.1,4.1,4.1,4.1,0,0,0,4.1,4.1,4.1,4.1,0,0,0,4.1-4.1A4.1,4.1,0,0,0,1.877-7.482Zm0,6.769A2.672,2.672,0,0,1-.79-3.38,2.67,2.67,0,0,1,1.877-6.047,2.67,2.67,0,0,1,4.543-3.38,2.672,2.672,0,0,1,1.877-.713ZM7.1-7.65a.957.957,0,0,0-.957-.957.957.957,0,0,0-.957.957.955.955,0,0,0,.957.957A.955.955,0,0,0,7.1-7.65Zm2.717.971a4.735,4.735,0,0,0-1.292-3.352,4.766,4.766,0,0,0-3.352-1.292c-1.321-.075-5.28-.075-6.6,0a4.759,4.759,0,0,0-3.352,1.289A4.751,4.751,0,0,0-6.071-6.682c-.075,1.321-.075,5.28,0,6.6A4.735,4.735,0,0,0-4.778,3.272,4.772,4.772,0,0,0-1.426,4.564c1.321.075,5.28.075,6.6,0A4.735,4.735,0,0,0,8.528,3.272,4.766,4.766,0,0,0,9.82-.081C9.9-1.4,9.9-5.358,9.82-6.679ZM8.114,1.336A2.7,2.7,0,0,1,6.593,2.857c-1.053.418-3.552.321-4.716.321s-3.667.093-4.716-.321A2.7,2.7,0,0,1-4.361,1.336C-4.778.283-4.682-2.216-4.682-3.38s-.093-3.667.321-4.716A2.7,2.7,0,0,1-2.84-9.617c1.053-.418,3.552-.321,4.716-.321s3.667-.093,4.716.321A2.7,2.7,0,0,1,8.114-8.1c.418,1.053.321,3.552.321,4.716S8.531.287,8.114,1.336Z" transform="translate(6.127 11.38)" fill="#707070"/>
</svg>
