<svg xmlns="http://www.w3.org/2000/svg" width="9.1" height="13" viewBox="0 0 9.1 13">
    <defs>
        <style>
            .cls-1{fill:#707070}
        </style>
    </defs>
    <path id="map-marker-outline" d="M9.55 4.925A1.625 1.625 0 1 1 7.925 6.55 1.625 1.625 0 0 1 9.55 4.925M9.55 2a4.55 4.55 0 0 1 4.55 4.55C14.1 9.962 9.55 15 9.55 15S5 9.962 5 6.55A4.55 4.55 0 0 1 9.55 2m0 1.3A3.25 3.25 0 0 0 6.3 6.55c0 .65 0 1.95 3.25 6.311C12.8 8.5 12.8 7.2 12.8 6.55A3.25 3.25 0 0 0 9.55 3.3z" class="cls-1" transform="translate(-5 -2)"/>
</svg>
