<?xml version="1.0" encoding="utf-8"?>
<!-- Generator: Adobe Illustrator 23.0.3, SVG Export Plug-In . SVG Version: 6.00 Build 0)  -->
<svg version="1.1" id="Layer_1" xmlns="http://www.w3.org/2000/svg" xmlns:xlink="http://www.w3.org/1999/xlink" x="0px" y="0px"
	 viewBox="0 0 130 42" style="enable-background:new 0 0 130 42;" xml:space="preserve">
<style type="text/css">
	.st0{fill:#6B6B6B;}
</style>
<g>
	<g>
		<path class="st0" d="M55.8,40c0.5,0.1,0.7,0.3,0.7,0.6c0,0.4-0.3,0.6-0.8,0.6c-0.1,0-0.3,0-0.6,0c-0.2,0-0.3,0-0.4,0v-0.1
			c0.2,0,0.3,0,0.3-0.3v-1.6c0-0.2,0-0.3-0.3-0.3v-0.1c0.1,0,0.3,0,0.4,0c0.2,0,0.4,0,0.5,0c0.5,0,0.7,0.2,0.7,0.5
			C56.3,39.7,56.1,39.9,55.8,40L55.8,40z M55.2,39.3V40h0.2c0.4,0,0.5-0.2,0.5-0.5c0-0.3-0.1-0.5-0.5-0.5C55.3,39,55.2,39,55.2,39.3
			z M56.1,40.6c0-0.3-0.2-0.5-0.6-0.5h-0.3v0.8c0,0.2,0,0.3,0.2,0.3C55.9,41.2,56.1,41,56.1,40.6z"/>
		<path class="st0" d="M59.5,40.1c0,0.7-0.4,1.2-1,1.2c-0.6,0-1-0.4-1-1.2c0-0.7,0.4-1.2,1-1.2C59.1,38.9,59.5,39.3,59.5,40.1z
			 M57.8,40.1c0,0.7,0.3,1.1,0.7,1.1c0.4,0,0.7-0.5,0.7-1.1c0-0.7-0.3-1.1-0.7-1.1C58,38.9,57.8,39.4,57.8,40.1z"/>
		<path class="st0" d="M62.5,39c-0.2,0-0.3,0.1-0.3,0.3v1c0,0.3,0,0.5-0.1,0.7c-0.1,0.2-0.3,0.3-0.6,0.3c-0.2,0-0.4,0-0.6-0.2
			c-0.2-0.2-0.2-0.4-0.2-0.8v-1c0-0.2,0-0.3-0.3-0.3v-0.1c0.1,0,0.2,0,0.4,0c0.2,0,0.3,0,0.4,0V39C61,39,61,39,61,39.3v1.1
			c0,0.4,0.1,0.8,0.5,0.8c0.5,0,0.6-0.4,0.6-0.8v-1c0-0.2-0.1-0.3-0.3-0.3v-0.1c0.1,0,0.2,0,0.3,0C62.3,38.9,62.4,38.9,62.5,39
			L62.5,39z"/>
		<path class="st0" d="M65.2,39.3c0,0.1,0,0.2,0,0.3h-0.1c0-0.5-0.1-0.6-0.5-0.6h-0.2v1.9c0,0.3,0.1,0.3,0.3,0.3v0.1
			c-0.1,0-0.3,0-0.5,0c-0.2,0-0.4,0-0.5,0v-0.1c0.3,0,0.3,0,0.3-0.3V39h-0.2c-0.4,0-0.5,0.2-0.5,0.6h-0.1c0-0.1,0-0.2,0-0.3
			c0-0.1,0-0.3,0-0.4c0.3,0,0.7,0,0.9,0c0.3,0,0.6,0,0.9,0C65.2,39.1,65.2,39.3,65.2,39.3z"/>
		<path class="st0" d="M66.9,39c-0.2,0-0.3,0-0.3,0.3v1.6c0,0.2,0,0.3,0.3,0.3v0.1c-0.1,0-0.3,0-0.4,0c-0.2,0-0.3,0-0.4,0v-0.1
			c0.2,0,0.3,0,0.3-0.3v-1.6c0-0.2,0-0.3-0.3-0.3v-0.1c0.1,0,0.2,0,0.4,0C66.7,38.9,66.8,38.9,66.9,39L66.9,39z"/>
		<path class="st0" d="M70.2,41.3c-0.1,0.2-0.1,0.3-0.2,0.4c-0.1,0.1-0.2,0.1-0.4,0.1c-0.3,0-0.6-0.2-1.1-0.3c0,0-0.1,0-0.1,0
			c-0.1,0-0.2,0-0.3,0c-0.1,0-0.2,0-0.2-0.1c0,0,0.1-0.1,0.2-0.1c0.1,0,0.2,0,0.2,0c0.2,0,0.2-0.1,0.4-0.1c-0.6-0.1-0.9-0.5-0.9-1.2
			c0-0.7,0.4-1.2,1-1.2c0.6,0,1,0.4,1,1.2c0,0.7-0.4,1.2-0.9,1.2v0c-0.2,0-0.3,0.1-0.5,0.2c0.3,0.1,0.8,0.2,1,0.2
			C69.9,41.6,70.1,41.5,70.2,41.3L70.2,41.3z M69,41.2c0.4,0,0.7-0.5,0.7-1.1c0-0.7-0.3-1.1-0.7-1.1c-0.4,0-0.7,0.5-0.7,1.1
			C68.2,40.8,68.6,41.2,69,41.2z"/>
		<path class="st0" d="M73,39c-0.2,0-0.3,0.1-0.3,0.3v1c0,0.3,0,0.5-0.1,0.7c-0.1,0.2-0.3,0.3-0.6,0.3c-0.2,0-0.4,0-0.6-0.2
			c-0.2-0.2-0.2-0.4-0.2-0.8v-1c0-0.2,0-0.3-0.3-0.3v-0.1c0.1,0,0.3,0,0.4,0c0.2,0,0.3,0,0.4,0V39c-0.2,0-0.3,0-0.3,0.3v1.1
			c0,0.4,0.1,0.8,0.5,0.8c0.5,0,0.6-0.4,0.6-0.8v-1c0-0.2-0.1-0.3-0.3-0.3v-0.1c0.1,0,0.2,0,0.3,0S72.9,38.9,73,39L73,39z"/>
		<path class="st0" d="M75.6,41.2c-0.2,0-0.5,0-0.8,0c-0.2,0-0.6,0-1,0v-0.1c0.2,0,0.3,0,0.3-0.3v-1.6c0-0.2,0-0.3-0.3-0.3v-0.1
			c0.3,0,0.8,0,1,0c0.2,0,0.5,0,0.7,0c0,0.2,0,0.3,0,0.4c0,0.1,0,0.2,0,0.2h-0.1c0-0.4-0.1-0.5-0.4-0.5h-0.3c-0.2,0-0.3,0-0.3,0.3
			V40h0.2c0.3,0,0.3-0.3,0.3-0.4H75c0,0.1,0,0.2,0,0.3c0,0.1,0,0.1,0,0.2c0,0.1,0,0.2,0,0.5H75c0-0.2,0-0.4-0.3-0.4h-0.2v0.8
			c0,0.2,0,0.3,0.3,0.3H75c0.4,0,0.5-0.1,0.5-0.6h0.1c0,0.1,0,0.1,0,0.2C75.6,40.9,75.6,41.1,75.6,41.2z"/>
	</g>
</g>
<g>
	<g>
		<path class="st0" d="M29.6,29.9c0,2.1-1.2,3.5-2.9,3.5c-1.8,0-2.9-1.2-2.9-3.4c0-2.1,1.2-3.5,2.9-3.5
			C28.5,26.6,29.6,27.8,29.6,29.9z M24.7,30c0,2,0.9,3.2,2.1,3.2c1.2,0,2-1.3,2-3.3c0-2-0.9-3.2-2-3.2C25.5,26.7,24.7,28.1,24.7,30z
			 M26.2,25.6c0,0.3-0.3,0.5-0.5,0.5c-0.3,0-0.5-0.2-0.5-0.5c0-0.3,0.2-0.5,0.5-0.5C26,25,26.2,25.3,26.2,25.6z M28.2,25.6
			c0,0.3-0.2,0.5-0.5,0.5c-0.3,0-0.5-0.2-0.5-0.5c0-0.3,0.2-0.5,0.5-0.5C28,25,28.2,25.3,28.2,25.6z"/>
		<path class="st0" d="M33.3,33.1h2c1.2,0,1.4-0.4,1.5-1.7H37c0,0.2,0,0.5,0,0.8c0,0.2,0,0.7,0.1,1.2c-0.7,0-1.6,0-2.3,0
			c-0.7,0-1.6,0-2.3,0v-0.2l3.9-6.2h-1.9c-1.2,0-1.4,0.4-1.5,1.7h-0.2c0-0.2,0-0.5,0-0.8c0-0.2,0-0.7-0.1-1.2c0.7,0,1.6,0,2.3,0
			c0.7,0,1.6,0,2.3,0v0.2L33.3,33.1z"/>
		<path class="st0" d="M44.7,27.2c0.1,0.1,0.1,0.1,0.2,0.1c0.1,0,0.2-0.2,0.2-0.6h0.2c0,0.5,0,1.1,0,2.1h-0.2
			c-0.1-0.5-0.2-1-0.5-1.4c-0.4-0.5-1-0.7-1.6-0.7c-1.2,0-2,1.3-2,3.2c0,2.2,0.7,3.2,2.2,3.2c0.4,0,0.8-0.2,1-0.3
			c0.2-0.2,0.3-0.3,0.3-0.5v-0.9c0-0.8-0.2-0.9-0.9-0.9v-0.2c0.3,0,0.9,0,1.3,0c0.4,0,0.7,0,1,0v0.2c-0.4,0-0.5,0.1-0.5,0.8v1.8
			h-0.2c0-0.2-0.1-0.5-0.3-0.5c-0.1,0-0.1,0-0.3,0.2c-0.4,0.3-0.8,0.5-1.4,0.5c-1.9,0-3-1.2-3-3.3c0-2.2,1.3-3.5,3-3.5
			C43.8,26.6,44.2,26.9,44.7,27.2z"/>
		<path class="st0" d="M53.2,33.3c-0.6,0-1.5,0-2.1,0c-0.6,0-1.8,0-2.7,0v-0.2c0.6,0,0.8-0.1,0.8-0.8v-4.6c0-0.7-0.1-0.8-0.8-0.8
			v-0.2c0.9,0,2.1,0,2.7,0c0.6,0,1.4,0,1.9,0c0,0.4-0.1,0.9-0.1,1.1c0,0.2,0,0.4,0,0.6h-0.2c-0.1-1.1-0.3-1.5-1.2-1.5h-0.8
			c-0.6,0-0.8,0.1-0.8,0.8v2.2h0.6c0.8,0,0.8-0.8,0.9-1.2h0.2c0,0.4,0,0.7,0,0.9c0,0.2,0,0.3,0,0.4c0,0.3,0,0.6,0.1,1.3h-0.2
			c-0.1-0.6-0.1-1.2-0.9-1.2H50v2.2c0,0.7,0.1,0.8,0.8,0.8h0.7c1.2,0,1.4-0.4,1.5-1.6h0.2c0,0.2,0,0.4,0,0.7
			C53.1,32.3,53.1,32.8,53.2,33.3z"/>
		<path class="st0" d="M66.2,29.9c0,2.1-1.2,3.5-2.9,3.5c-1.8,0-2.9-1.2-2.9-3.4c0-2.1,1.2-3.5,2.9-3.5C65,26.6,66.2,27.8,66.2,29.9
			z M61.2,30c0,2,0.9,3.2,2.1,3.2c1.2,0,2-1.3,2-3.3c0-2-0.9-3.2-2-3.2C62,26.7,61.2,28.1,61.2,30z M62.8,25.6
			c0,0.3-0.3,0.5-0.5,0.5c-0.3,0-0.5-0.2-0.5-0.5c0-0.3,0.2-0.5,0.5-0.5C62.5,25,62.8,25.3,62.8,25.6z M64.7,25.6
			c0,0.3-0.2,0.5-0.5,0.5c-0.3,0-0.5-0.2-0.5-0.5c0-0.3,0.2-0.5,0.5-0.5C64.5,25,64.7,25.3,64.7,25.6z"/>
		<path class="st0" d="M69.8,33.1h2c1.2,0,1.4-0.4,1.5-1.7h0.2c0,0.2,0,0.5,0,0.8c0,0.2,0,0.7,0.1,1.2c-0.7,0-1.6,0-2.3,0
			c-0.7,0-1.6,0-2.3,0v-0.2l3.9-6.2h-1.9c-1.2,0-1.4,0.4-1.5,1.7h-0.2c0-0.2,0-0.5,0-0.8c0-0.2,0-0.7-0.1-1.2c0.7,0,1.6,0,2.3,0
			c0.7,0,1.6,0,2.3,0v0.2L69.8,33.1z"/>
		<path class="st0" d="M81.2,27.2c0.1,0.1,0.1,0.1,0.2,0.1c0.1,0,0.2-0.2,0.2-0.6h0.2c0,0.5,0,1.1,0,2.1h-0.2
			c-0.1-0.5-0.2-1-0.5-1.4c-0.4-0.5-1-0.7-1.6-0.7c-1.2,0-2,1.3-2,3.2c0,2.2,0.7,3.2,2.2,3.2c0.4,0,0.8-0.2,1-0.3
			c0.2-0.2,0.3-0.3,0.3-0.5v-0.9c0-0.8-0.2-0.9-0.9-0.9v-0.2c0.3,0,0.9,0,1.3,0c0.4,0,0.7,0,1,0v0.2c-0.4,0-0.5,0.1-0.5,0.8v1.8
			h-0.2c0-0.2-0.1-0.5-0.3-0.5c-0.1,0-0.1,0-0.3,0.2c-0.4,0.3-0.8,0.5-1.4,0.5c-1.9,0-3-1.2-3-3.3c0-2.2,1.3-3.5,3-3.5
			C80.3,26.6,80.7,26.9,81.2,27.2z"/>
		<path class="st0" d="M89.7,33.3c-0.6,0-1.5,0-2.1,0c-0.6,0-1.8,0-2.7,0v-0.2c0.6,0,0.8-0.1,0.8-0.8v-4.6c0-0.7-0.1-0.8-0.8-0.8
			v-0.2c0.9,0,2.1,0,2.7,0c0.6,0,1.4,0,1.9,0c0,0.4-0.1,0.9-0.1,1.1c0,0.2,0,0.4,0,0.6h-0.2c-0.1-1.1-0.3-1.5-1.2-1.5h-0.8
			c-0.6,0-0.8,0.1-0.8,0.8v2.2h0.6c0.8,0,0.8-0.8,0.9-1.2h0.2c0,0.4,0,0.7,0,0.9c0,0.2,0,0.3,0,0.4c0,0.3,0,0.6,0.1,1.3H88
			c-0.1-0.6-0.1-1.2-0.9-1.2h-0.6v2.2c0,0.7,0.1,0.8,0.8,0.8h0.7c1.2,0,1.4-0.4,1.5-1.6h0.2c0,0.2,0,0.4,0,0.7
			C89.6,32.3,89.6,32.8,89.7,33.3z"/>
		<path class="st0" d="M98.3,26.9c-0.6,0-0.8,0.2-0.8,0.9v5.5h-0.2l-3.9-6v4.9c0,0.7,0.1,0.9,0.8,0.9v0.2c-0.2,0-0.6,0-0.9,0
			c-0.3,0-0.7,0-0.9,0v-0.2c0.6,0,0.8-0.2,0.8-0.9v-4.5c0-0.7-0.1-0.8-0.8-0.8v-0.2c0.2,0,0.5,0,0.9,0c0.3,0,0.5,0,0.7,0l3.3,5v-4
			c0-0.7-0.1-0.9-0.8-0.9v-0.2c0.2,0,0.6,0,0.9,0c0.3,0,0.7,0,0.9,0V26.9z"/>
		<path class="st0" d="M106.2,31c0,1.1,0,1.8,0,2.2H106c0-0.4-0.1-0.5-0.2-0.5c0,0-0.1,0-0.2,0.1c-0.4,0.3-0.9,0.6-1.6,0.6l-0.2,0.5
			c0.2,0,0.3-0.1,0.5-0.1c0.3,0,0.6,0.2,0.6,0.4c0,0.5-0.6,0.7-1,0.7c-0.3,0-0.6,0-0.8-0.1l0-0.2c0.1,0,0.2,0,0.4,0
			c0.4,0,0.8-0.1,0.8-0.4c0-0.2-0.1-0.3-0.4-0.3c-0.1,0-0.3,0-0.5,0.1l0.3-0.8c-1.7-0.1-2.8-1.3-2.8-3.3c0-2.1,1.2-3.5,2.9-3.5
			c0.8,0,1.3,0.3,1.7,0.6c0.1,0.1,0.1,0.1,0.2,0.1c0.1,0,0.2-0.2,0.2-0.6h0.2c0,0.5,0,1.1,0,2.1H106c-0.1-0.8-0.2-1-0.5-1.4
			c-0.4-0.5-1-0.7-1.6-0.7c-1.2,0-2,1.3-2,3.3c0,2.1,0.9,3.2,2.1,3.2c0.6,0,1.2-0.2,1.6-0.7c0.3-0.4,0.3-0.7,0.4-1.5H106.2z"/>
	</g>
</g>
<path class="st0" d="M55.4,4.1c0.1,0,0.1,0,0.1,0c1.9-2.4,4.6-2.8,7.4-2.8c1.5,0,3,0,4.6-0.1c0.2,0,0.4-0.1,0.5,0
	c1.4,0.8,2.7,0.2,4.1-0.3c2-0.6,3.9,0.2,5.7,0.8c1,0.3,2,0.7,3,1.1c1.3,0.5,1.4,0.7,0.9,2c-0.1,0.2-0.1,0.3-0.2,0.5
	c0.4,0.1,0.7-0.1,1.1-0.3c1.8-0.8,3.6-0.7,5.2,0.3c2.2,1.3,4.2,2.9,5.5,5.1c0.3,0.5,0.3,0.8,0,1.3c-1.5,2.5-3.7,4.3-6.3,5.5
	c-1.2,0.6-2.4,0.6-3.7,0.2c-0.6-0.2-1.1-0.4-1.7-0.6c0,0.1-0.1,0.2-0.1,0.2c0.9,2.3,0.2,2.1-1.4,2.7c-1.7,0.6-3.4,1.3-5.2,1.7
	c-1.6,0.3-3.2,0.3-4.7-0.7c-0.3-0.2-0.6-0.2-0.9,0c-0.8,0.4-1.7,0.5-2.6,0.4c-1.2-0.1-2.4,0-3.6-0.1c-4.9-0.3-4.8-0.1-7.8-2.8
	c0,0-0.1,0.1-0.1,0.1c-0.1,1.8-0.3,1.9-2.1,2c-2.5,0.1-4.4-0.8-5.9-2.8c-1.2-1.6-2.6-3.1-3.2-5.1c-0.2-0.6-0.6-0.4-1-0.4
	c-4.3-0.2-8.6-0.7-12.9-0.6c-0.2,0-0.5,0-0.7-0.3c0.3-0.3,0.6-0.3,0.9-0.2c4.3,0.2,8.6-0.4,12.9-0.6c0.5,0,0.7-0.3,0.8-0.7
	c0.8-2.5,2.6-4.4,4.4-6.2c1.6-1.7,3.8-1.5,5.9-1.3c0.5,0.1,0.8,0.5,0.8,1C55.3,3.4,55.2,3.8,55.4,4.1z M73.4,20.9c0-0.2,0-0.3,0-0.3
	c-1.5-3-3-6-4.8-8.8c-0.1-0.1-0.2-0.3-0.3-0.4c-1.2-0.6-2.8-0.2-3.6,1c1.7,2.4,3,5,4,7.7c0.7,0,1-0.4,0.9-1c0-0.5,0.3-0.9,0.8-1
	c0.3-0.1,0.6,0,0.7,0.3c0.2,0.5,0,0.8-0.2,1.2c-0.1,0.2-0.3,0.3-0.2,0.6C71.5,20.7,72.4,20.9,73.4,20.9z M64.7,10
	c0.6,1.5,1.9,1,3,1.1c0.5,0,0.9-0.2,1.1-0.7c0.8-1.4,1.6-2.8,2.4-4.2c0.8-1.5,1.5-3,2.3-4.6c-1.2,0-2.1,0.2-2.9,0.8
	c0.2,0.4,0.4,0.7,0.5,1c0.2,0.4,0.2,0.8-0.3,1c-0.4,0.2-0.7,0-1-0.3c-0.2-0.2-0.3-0.5-0.3-0.7c0-0.6-0.2-0.9-0.9-1
	C67.7,5,66.4,7.6,64.7,10z M44.6,11.5c0.6,2.1,2.1,4.5,4.2,6.7c0.5,0.5,1.2,1.5,1.9,1c0.8-0.5,0.3-1.6,0-2.4c0-0.1-0.2-0.2-0.2-0.3
	c-0.8,0.2-1.4,0.3-1.8,0.2c-0.7-0.2-1.3-1.1-1.1-1.8c0.3-0.9,1-0.7,1.7-0.6c0.4,0.1,0.8,0.3,1.2,0.5C50.5,12.2,47.5,11,44.6,11.5z
	 M44.6,10.8c3.7,0.4,5.9-0.8,5.6-3.1c-0.8,0.4-1.7,1-2.6,0.3c-0.5-0.4-0.2-1,0.1-1.5c0.7-1.1,1.7-0.8,2.7-0.5C50.9,5.3,51,4.7,51,4
	c0-0.3,0-0.7-0.4-0.9c-0.3-0.1-0.6,0.1-0.8,0.3c-1.4,0.9-2.3,2.4-3.4,3.7C45.6,8.2,44.9,9.3,44.6,10.8z M58.1,19.7
	c-1.7-2.6-3.3-5.2-4.8-8c-0.2-0.3-0.4-0.4-0.7-0.3c-0.3,0.1-0.5,0.4-0.4,0.7c0.3,1.3,0.3,2.7,0.8,3.8c0.6,1.2,0.7,2.4,0.7,3.7
	c1,0.1,0.8-0.5,0.9-1.1c0-0.5-0.3-1.1,0.2-1.7C55.8,18,56.6,19.2,58.1,19.7z M53.7,2.8c0.1,1.3,0.2,2.6-0.8,3.6
	c-0.1,0.1-0.1,0.2,0,0.3c0,1.1-0.3,2.1-0.5,3.1c-0.1,0.4-0.3,0.8,0.3,1c0.5,0.2,0.7-0.2,0.9-0.5C54.7,8.1,56,6,57.4,3.9
	c0.3-0.4,0.5-0.8,0.8-1.1c-1.6,0.4-2.4,1.7-3.4,2.8c-0.5-0.7-0.2-1.2-0.2-1.8C54.6,3.3,54.7,2.7,53.7,2.8z M84.9,11.4
	c1.3,1.5,2.5,2.9,3.6,4.3c1.6-1.2,3.1-2.4,4-4.2c-0.4-0.2-0.8-0.1-1.1-0.1c-1,0-2-0.2-2.8,0.7c-0.3,0.4-1.1,0.4-1.4,0
	C86.7,11.2,86,11.4,84.9,11.4z M56.5,10.7c0.8,0.3,0.8,0.3,1.3-0.3c2.1-2.5,3.5-5.5,5.2-8.3c-1.6-0.3-1.8-0.2-2.5,1
	C60,4,59.5,4.7,59.1,5.5C58.2,7.2,57.1,8.9,56.5,10.7z M56.4,11.5c0.1,0.4,0.3,0.7,0.4,1.1c1.1,2.2,2.4,4.4,3.6,6.5
	c0.7,1.3,0.8,1.4,2.5,1.2c-0.6-1.1-1.2-2.1-1.8-3.2c-1-1.9-2.2-3.6-3.5-5.3C57.3,11.4,57,11.2,56.4,11.5z M88.6,6.7
	c-1.2,1.3-2.3,2.6-3.4,4c1.3,0.2,1.3,0.2,2.1-0.4c0.4-0.3,1-0.4,1.3-0.1c1.2,1.1,2.5,0.4,3.9,0.6C91.6,9,90.2,7.9,88.6,6.7z
	 M60.2,20.2c0-0.1,0-0.2,0-0.2c-1.5-2.7-3.3-5.3-4.4-8.3c-0.1-0.3-0.3-0.3-0.6-0.3c-0.4,0-0.9,0.1-1.4,0.1c0.1,0.2,0.1,0.3,0.1,0.4
	c1.5,2.8,3.2,5.4,5,8C59.3,20.3,59.7,20.2,60.2,20.2z M60.3,2.3c-0.7-0.1-1.1,0-1.5,0.5c-1.8,2.6-3.5,5.2-4.9,8
	c0.2,0.2,0.5,0.1,0.7,0.1c0.8,0.3,1.2,0,1.4-0.8c0.3-0.9,0.8-1.8,1.3-2.7C58.3,5.7,59.3,4,60.3,2.3z M69.6,11.5c2,3,3.2,6.4,5.6,9.2
	c0.3-0.3,0.2-0.5,0.1-0.6c-1.3-2.6-2.5-5.3-3.9-7.9C71,11.4,70.6,11.2,69.6,11.5z M75.5,1.8c-0.1-0.1-0.2-0.1-0.3-0.2
	c-2.2,2.7-3.5,6.1-5.4,9.1c0.8,0.4,1.3,0.1,1.7-0.6c1.2-2.3,2.3-4.6,3.4-7C75.1,2.7,75.3,2.3,75.5,1.8z M58.3,11.5
	c0.6,0.9,1.2,1.8,1.8,2.7c1.1,1.9,2.2,3.8,3.3,5.7c0.2,0.4,0.5,0.7,1,0.4c0-0.1,0-0.2-0.1-0.3c-1.4-2.9-3.2-5.5-4.9-8.3
	C59.2,11.2,58.8,11.3,58.3,11.5z M64.5,2.1c-0.6-0.3-0.9-0.1-1.1,0.4c-1.1,2-2.3,4-3.5,5.9c-0.5,0.8-1,1.6-1.5,2.3
	c0.7,0.3,1,0,1.3-0.4c0.7-1.1,1.4-2.2,2.1-3.2C62.8,5.5,63.7,3.9,64.5,2.1z M51.7,15.9c0.7-1.3,0.3-2.5-0.3-3.4
	c-0.3-0.6-1-1.3-2.1-1c1.4,1.1,2,2.4,1.7,4c0,0.2,0,0.4,0.1,0.6c0.6,1,0.7,2.2,0.5,3.3c0.4,0.2,0.8,0.3,1.2,0.1
	C53.2,18.1,52.9,16.9,51.7,15.9z M51.7,6.5c1.2-1,1.6-2.2,1.1-3.7c-0.4-0.1-0.8,0-1.2,0.2c0.4,1.3-0.4,2.5-0.5,3.7
	c-0.1,1.6-0.3,2.9-1.6,4.1C51.5,10.8,52.6,8.4,51.7,6.5z M77.1,20c-1-2.5-2.2-4.8-3.6-7c-0.2-0.3-0.4-0.6-0.8-0.3
	c1.1,2.4,2.2,4.8,3.3,7.1C76.2,20.4,76.5,20.4,77.1,20z M72.7,9.7c0.8,0,3.6-4.5,4.4-7.4c-0.4-0.2-0.7-0.4-1,0.2
	C74.9,4.9,73.8,7.3,72.7,9.7z M88,16c-1.2-1.4-2.3-2.8-3.5-4.2c-0.3-0.3-0.6-0.5-1.1-0.2c1.1,1.7,2.2,3.5,3.3,5.1
	C87.3,16.6,87.6,16.4,88,16z M83.6,10.7c0.1,0.1,0.2,0.2,0.3,0.3c1.8-1.1,2.6-3.1,4.1-4.5c-0.4-0.5-0.7-0.7-1.3-0.7
	C85.7,7.4,84.7,9,83.6,10.7z M81.8,11.5c1,1.9,2,3.6,3.3,5.3c0.4,0.5,0.8,0.3,1.3,0.1c-1.5-1.5-2.4-3.2-3.4-4.9
	C82.7,11.6,82.5,11.2,81.8,11.5z M86.5,5.5c-1.1-0.2-1.1-0.2-1.3,0c-1.2,1.7-2.4,3.4-3.2,5.2c0.3,0.2,0.6,0.2,0.7,0
	C83.9,9.1,84.7,7.1,86.5,5.5z M80.7,15.4c-0.4-0.5-0.2-1.4-1-1.3c-1,0.1-2.1,0.3-3.3,0.5c0.6,0.5,0.4,1.5,1.3,1.4
	C78.6,15.8,79.6,15.6,80.7,15.4z M77.3,6.4c-0.3,0.5-0.7,0.8-0.7,1.5c0.7,0.1,1.4,0.2,2.1,0.4c1.4,0.2,1.4,0.2,1.8-1.2
	C79.5,6.8,78.4,6.6,77.3,6.4z M83.7,16.8c-1.3-1.8-2.5-3.3-3.3-5.2c-0.1-0.4-0.4-0.4-0.8-0.1C80.9,13.3,80.5,16.1,83.7,16.8z
	 M79.7,10.7c0.1,0.1,0.2,0.1,0.2,0.2c1-0.5,1-1.7,1.7-2.5c0.7-0.8,1.2-1.8,1.9-2.7c-1.4,0.2-2.2,0.9-2.6,2.1
	C80.6,8.7,80.2,9.7,79.7,10.7z M75.3,12.8c0.4,0.5,0.4,1.2,1.1,1.1c1.1-0.2,2.2-0.3,3.3-0.5c-0.3-1-0.3-1-0.7-1
	C77.8,12.5,76.6,12.6,75.3,12.8z M79.7,9.1c-1-0.2-1.9-0.3-2.8-0.5c-0.9-0.2-1.2,0.2-1.4,1.1c1.1,0.1,2.1,0.2,3.1,0.4
	C79.3,10.2,79.6,9.9,79.7,9.1z M64.8,3.2c0.6,0.3,1.2,0,1.8,0.1c1.2,0.1,1.3,0.1,1.5-1.2C66.1,1.6,65.1,1.9,64.8,3.2z M68.2,20.3
	c-0.3-0.5-0.1-1.2-0.9-1.3c-0.8-0.1-1.7,0.1-2.6,0.1c0.2,0.6,0.2,1.2,0.8,1.2C66.4,20.4,67.2,20.6,68.2,20.3z M65.3,14.8
	c-0.4-1-1.4-1.2-3.5-0.7C62.3,15.2,63.4,15.4,65.3,14.8z M65.4,7.6c-1.9-0.6-3.1-0.4-3.5,0.6C63.7,8.8,64.9,8.6,65.4,7.6z M64.5,9
	c-0.9-0.1-1.8-0.2-2.7-0.2c-0.6,0-0.8,0.5-0.9,0.9C64.2,10.2,64.3,10.2,64.5,9z M64.5,13.4c-0.3-1.1-1.6-1.3-3.6-0.6
	c0.2,0.4,0.3,0.9,1,0.8C62.7,13.6,63.6,13.5,64.5,13.4z M77.7,5.6c2.1,0.8,2.8,0.8,3-0.3c-0.8-0.5-1.7-0.5-2.5-0.8
	C77.9,4.8,77.8,5.2,77.7,5.6z M77.7,16.7c0.2,0.5,0.2,1.2,0.7,1.1c0.8-0.1,1.7-0.2,2.4-0.8c0-0.4-0.1-0.6-0.4-0.9
	C79.5,16.3,78.6,16.5,77.7,16.7z M62.9,15.6c0.9,1.5,2.2,0.3,3.2,0.5C65.3,14.7,63.9,15.9,62.9,15.6z M66.2,6.2
	c-3-0.5-3.1-0.4-3.4,0.7C63.9,6.5,65.3,7.7,66.2,6.2z M81.1,4.7c0.4-1-0.1-1.4-2.1-1.6c-0.2,0.3-0.4,0.5-0.4,0.9
	C79.4,4.2,80.2,4.3,81.1,4.7z M79,19.4c2.2-0.5,2.5-0.7,2.1-1.6c-0.8,0.2-1.7,0.5-2.5,0.7C78.6,18.9,78.7,19.2,79,19.4z M78.8,11.5
	c-1.4,0-2.8,0-4.2,0C75.1,12.4,75.8,12.4,78.8,11.5z M78.1,2.7c-1.2,2-2.1,4.1-3.3,6.1C76.3,7,77.2,4.8,78.1,2.7z M78.1,19.7
	c-0.9-2.1-1.7-4.3-3.3-6.1C76,15.6,76.9,17.8,78.1,19.7z M67.4,3.9c-1.2-0.3-2.2-0.4-3.4,0.2C65.6,4.6,66.7,4.5,67.4,3.9z
	 M67.5,18.4c-1.2-0.8-2.2-0.2-3.2-0.1C65.2,18.8,66.2,18.8,67.5,18.4z M50.1,6.7c-0.5-0.5-1-0.4-1.5-0.2C48.1,6.6,48,7,48.1,7.5
	C49,7.7,49.6,7.5,50.1,6.7z M66.7,5.1c-2.7-0.5-2.7-0.5-3,0.2C64.7,5.3,65.8,5.8,66.7,5.1z M48.1,14.9c-0.1,0.6,0.1,1,0.7,1.2
	c0.5,0.1,1,0.2,1.3-0.4C49.6,15,49,14.7,48.1,14.9z M66.7,17.2c-1-0.6-2-0.2-3.1-0.2C64.1,17.7,64.1,17.7,66.7,17.2z M79.1,10.8
	c-3.2-0.8-3.9-0.8-4.3,0C76.1,10.9,77.4,10.9,79.1,10.8z M62.6,11.8c-0.8-0.6-1.6-0.4-2.7-0.3C60.9,12.6,61.8,11.8,62.6,11.8z
	 M60.3,10.8c0.8,0.2,1.6,0.3,2.4-0.2C61.8,10.5,61,9.9,60.3,10.8z"/>
<g>
</g>
<g>
</g>
<g>
</g>
<g>
</g>
<g>
</g>
<g>
</g>
</svg>
