<?xml version="1.0" encoding="utf-8"?>
<!-- Generator: Adobe Illustrator 24.3.0, SVG Export Plug-In . SVG Version: 6.00 Build 0)  -->
<svg version="1.1" id="Layer_1" xmlns="http://www.w3.org/2000/svg" xmlns:xlink="http://www.w3.org/1999/xlink" x="0px" y="0px"
	 viewBox="0 0 70 70" style="enable-background:new 0 0 70 70;" xml:space="preserve">
<style type="text/css">
	.st0{fill:#01BE6D;}
	.st1{fill:#0398BE;}
	.st2{fill:#FE6601;}
</style>
<g>
	<g>
		<path class="st2" d="M19,49.6h-5.8c-0.8,0-1.5-0.7-1.5-1.5s0.7-1.5,1.5-1.5H19c0.8,0,1.5,0.7,1.5,1.5S19.8,49.6,19,49.6z"/>
		<path class="st2" d="M66.4,49.6h-3.6c-0.8,0-1.5-0.7-1.5-1.5s0.7-1.5,1.5-1.5h2.4l2-10.5c0-5.4-4.6-9.9-10.2-9.9h-9.6l-4.6,20.4
			H51c0.8,0,1.5,0.7,1.5,1.5s-0.7,1.5-1.5,1.5H40.8c-0.4,0-0.9-0.2-1.1-0.5c-0.3-0.3-0.4-0.8-0.3-1.2l5.3-23.3
			c0.2-0.7,0.7-1.1,1.4-1.1h10.7c7.2,0,13.1,5.9,13.1,13.1l-2.2,11.9C67.7,49.1,67.1,49.6,66.4,49.6z"/>
		<path class="st2" d="M56.9,55.4c-4,0-7.3-3.3-7.3-7.3s3.3-7.3,7.3-7.3s7.3,3.3,7.3,7.3S60.9,55.4,56.9,55.4z M56.9,43.8
			c-2.4,0-4.4,2-4.4,4.4s2,4.4,4.4,4.4s4.4-2,4.4-4.4S59.3,43.8,56.9,43.8z"/>
		<path class="st2" d="M24.8,55.4c-4,0-7.3-3.3-7.3-7.3s3.3-7.3,7.3-7.3s7.3,3.3,7.3,7.3S28.8,55.4,24.8,55.4z M24.8,43.8
			c-2.4,0-4.4,2-4.4,4.4s2,4.4,4.4,4.4s4.4-2,4.4-4.4S27.2,43.8,24.8,43.8z"/>
		<path class="st2" d="M19,23.3H7.3c-0.8,0-1.5-0.7-1.5-1.5s0.7-1.5,1.5-1.5H19c0.8,0,1.5,0.7,1.5,1.5S19.8,23.3,19,23.3z"/>
		<path class="st2" d="M19,32.1H4.4c-0.8,0-1.5-0.7-1.5-1.5s0.7-1.5,1.5-1.5H19c0.8,0,1.5,0.7,1.5,1.5S19.8,32.1,19,32.1z"/>
		<path class="st2" d="M19,40.8H1.5c-0.8,0-1.5-0.7-1.5-1.5s0.7-1.5,1.5-1.5H19c0.8,0,1.5,0.7,1.5,1.5S19.8,40.8,19,40.8z"/>
		<path class="st2" d="M40.8,49.6H30.6c-0.8,0-1.5-0.7-1.5-1.5s0.7-1.5,1.5-1.5h9l6.6-29.2H13.1c-0.8,0-1.5-0.7-1.5-1.5
			c0-0.8,0.7-1.5,1.5-1.5h35c0.4,0,0.9,0.2,1.1,0.5c0.3,0.3,0.4,0.8,0.3,1.2l-7.3,32.1C42.1,49.1,41.5,49.6,40.8,49.6L40.8,49.6z"/>
	</g>
</g>
</svg>
