<?xml version="1.0" encoding="utf-8"?>
<!-- Generator: Adobe Illustrator 24.3.0, SVG Export Plug-In . SVG Version: 6.00 Build 0)  -->
<svg version="1.1" id="Layer_1" xmlns="http://www.w3.org/2000/svg" xmlns:xlink="http://www.w3.org/1999/xlink" x="0px" y="0px"
	 viewBox="0 0 70 70" style="enable-background:new 0 0 70 70;" xml:space="preserve">
<style type="text/css">
	.st0{fill:#01BE6D;}
	.st1{fill:#0398BE;}
	.st2{fill:#FE6601;}
</style>
<g>
	<g>
		<path class="st0" d="M70,47.4c0-10.2-6.9-19.1-16.6-21.8C52.8,11.4,41.1,0,26.7,0C12,0,0,12,0,26.7c0,4.8,1.3,9.5,3.7,13.6
			l-2.6,9.4c-0.4,1.6,1,3.1,2.6,2.6l9.4-2.6c3.8,2.2,8,3.5,12.4,3.7C28.3,63.1,37.2,70,47.4,70c4.1,0,8-1.1,11.5-3.1l6.8,1.8
			c1.9,0.5,3.6-1.2,3.1-3.1l-1.8-6.8C68.9,55.4,70,51.4,70,47.4z M13.8,45.3L7.9,47c-0.8,0.2-1.6-0.5-1.3-1.3l1.7-5.9l-0.5-0.8
			c-2.3-3.6-3.5-7.8-3.5-12.2C4.2,13,16.4,2.2,30.3,4.4c9.4,1.4,17,8.9,18.7,18.3c2.5,14.1-8.5,26.8-22.3,26.8
			c-4.3,0-8.5-1.2-12.2-3.5L13.8,45.3z M63.3,61.5c0.3,1.1-0.7,2.1-1.8,1.8l-3.3-0.9l-0.8,0.5c-3,1.9-6.5,3-10.1,3
			c-8,0-15.1-5.2-17.6-12.6C42,51.9,51.8,42.1,53.2,29.8c7.4,2.5,12.6,9.5,12.6,17.6c0,3.6-1,7.1-3,10.1l-0.5,0.8L63.3,61.5z"/>
		<path class="st0" d="M26,37.1h1.5c0.7,0,1.3,0.6,1.3,1.3v1.5c0,0.7-0.6,1.3-1.3,1.3H26c-0.7,0-1.3-0.6-1.3-1.3v-1.5
			C24.7,37.7,25.3,37.1,26,37.1z"/>
		<path class="st0" d="M30.6,19.2c0.5,1.8,0,3.2-1.1,4.3l-4,3.7c-0.5,0.5-0.8,1.1-0.8,1.8v2.6c0,0.7,0.6,1.3,1.3,1.3h1.5
			c0.7,0,1.3-0.6,1.3-1.3v-1.9l3.5-3.2c2.8-2.7,3.7-7.1,1.2-10.7c-1.1-1.6-2.7-2.8-4.6-3.3c-4.8-1.2-9.2,1.9-10.2,6.3
			c-0.2,0.9,0.5,1.7,1.3,1.7h1.4c0.6,0,1.2-0.4,1.3-1c0.5-2.1,2.6-3.5,4.9-3C29.2,16.7,30.2,17.8,30.6,19.2z"/>
	</g>
</g>
</svg>
