<?xml version="1.0" encoding="utf-8"?>
<!-- Generator: Adobe Illustrator 24.3.0, SVG Export Plug-In . SVG Version: 6.00 Build 0)  -->
<svg version="1.1" id="Layer_1" xmlns="http://www.w3.org/2000/svg" xmlns:xlink="http://www.w3.org/1999/xlink" x="0px" y="0px"
	 viewBox="0 0 70 70" style="enable-background:new 0 0 70 70;" xml:space="preserve">
<style type="text/css">
	.st0{fill:#01BE6D;}
	.st1{fill:#0398BE;}
	.st2{fill:#FE6601;}
</style>
<g>
	<g>
		<path class="st1" d="M40.5,39.1c10.8,0,19.6-8.8,19.6-19.6S51.2,0,40.5,0S20.9,8.8,20.9,19.6S29.7,39.1,40.5,39.1z M40.5,4.1
			c8.5,0,15.4,6.9,15.4,15.4S49,35,40.5,35S25,28.1,25,19.6S32,4.1,40.5,4.1z"/>
		<g>
			<path class="st1" d="M42.7,17.5c-1-0.4-2.7-1-3.5-1.6c-0.1,0-0.1-0.3-0.1-0.6c0-0.2,0.2-0.7,0.7-0.9c0.8-0.3,1.7-0.1,2.2,0.3
				c0.8,0.8,2.1,0.7,2.9-0.1c0.8-0.8,0.7-2.1-0.1-2.9c0,0-1-0.8-2.3-1.2v-0.2c0-1.1-0.9-2.1-2.1-2.1c-1.1,0-2.1,0.9-2.1,2.1v0.3
				c-3.7,1.3-4.6,6.4-1.7,8.6c1.3,1,3.1,1.7,4.7,2.3c1,0.4,1.1,1.1,1,1.6c-0.1,0.6-0.6,1.6-1.9,1.7c-1.4,0-1.7,0-2.7-0.7
				c-0.9-0.6-2.2-0.4-2.8,0.6c-0.6,0.9-0.4,2.2,0.6,2.8c1.1,0.7,2,1.1,2.9,1.2v0.2c0,1.1,0.9,2.1,2.1,2.1c1.1,0,2.1-0.9,2.1-2.1
				v-0.4C47.5,26.6,48.2,19.5,42.7,17.5L42.7,17.5z"/>
		</g>
		<path class="st1" d="M59.3,39.9l-23.5,5.3c-0.5-0.5-1.2-0.9-1.8-1.2l-12.1-5.4c-3.5-1.6-7.5-1.6-11,0l-9.7,4.4
			c-1,0.5-1.5,1.7-1,2.7c0.5,1,1.7,1.5,2.7,1l9.7-4.4c2.4-1.1,5.2-1.1,7.6,0l12.1,5.4c1.1,0.5,1.7,1.5,1.7,2.7
			c0,2.1-2.2,3.6-4.1,2.7l-10.4-4.7c-1-0.5-2.2,0-2.7,1c-0.5,1,0,2.2,1,2.7l10.4,4.7c5.3,2.4,11-2.3,9.8-7.9
			c15.3-3.5,22.4-5.1,22.5-5.1c2.8-0.8,5.5,1.3,5.5,4.1c0,1.5-0.8,2.9-2.1,3.7l-22.1,13c-2.3,1.4-5.1,1.7-7.7,0.8l-17-5.9
			c-0.5-0.2-1-0.2-1.4,0L1.3,64.9c-1.1,0.4-1.6,1.6-1.2,2.6c0.4,1.1,1.6,1.6,2.6,1.2l13.7-5.2l16.2,5.7c3.6,1.3,7.7,0.9,11.1-1.1
			l22.1-13c2.5-1.5,4.1-4.3,4.1-7.2C70,42.5,64.7,38.4,59.3,39.9L59.3,39.9z"/>
	</g>
</g>
</svg>
