<svg xmlns="http://www.w3.org/2000/svg" xmlns:xlink="http://www.w3.org/1999/xlink" width="500.933" height="354.105" viewBox="0 0 500.933 354.105">
  <defs>
    <linearGradient id="linear-gradient" x1="391.055" y1="1.156" x2="391.073" y2="0.27" gradientUnits="objectBoundingBox">
      <stop offset="0" stop-color="#ffe07b"/>
      <stop offset="0.007" stop-color="#ffe07d"/>
      <stop offset="0.24" stop-color="#f9e8ab"/>
      <stop offset="0.463" stop-color="#f4eecf"/>
      <stop offset="0.67" stop-color="#f1f2ea"/>
      <stop offset="0.855" stop-color="#eff5f9"/>
      <stop offset="1" stop-color="#eef6ff"/>
    </linearGradient>
  </defs>
  <g id="Group_490" data-name="Group 490" transform="translate(-382.887 -1005.568)">
    <path id="Path_393" data-name="Path 393" d="M2714.989,1292.931h448.626" transform="translate(-2280.795 15)" fill="none" stroke="#001b46" stroke-linecap="round" stroke-width="2"/>
    <path id="Path_195" data-name="Path 195" d="M604.343,266.708c-1.676-1.721-6.63-1.886-7.168,6.076-.673,10.027-2.6,25.65-18.751,33.642l8.784-1.676s9.817-.7,18.871-24.872C607.186,276.974,607.635,270.075,604.343,266.708Z" transform="translate(-179.479 920.761)" fill="#aa0013"/>
    <rect id="Rectangle_113" data-name="Rectangle 113" width="35.318" height="35.318" transform="translate(421.325 1245.671) rotate(-168.206)" fill="#ffa700"/>
    <rect id="Rectangle_114" data-name="Rectangle 114" width="34.33" height="34.33" transform="translate(420.959 1245.097) rotate(-168.206)" fill="#ffd300"/>
    <rect id="Rectangle_115" data-name="Rectangle 115" width="7.228" height="2.08" transform="translate(398.332 1239.385) rotate(-168.206)" fill="#ffa700"/>
    <rect id="Rectangle_116" data-name="Rectangle 116" width="26.713" height="26.713" transform="translate(418.003 1240.58) rotate(-168.206)" fill="#ffa700"/>
    <rect id="Rectangle_117" data-name="Rectangle 117" width="0.449" height="26.714" transform="matrix(-0.979, -0.204, 0.204, -0.979, 414.345, 1239.821)" fill="#ff8a00"/>
    <rect id="Rectangle_118" data-name="Rectangle 118" width="0.449" height="26.714" transform="matrix(-0.979, -0.204, 0.204, -0.979, 410.662, 1239.058)" fill="#ff8a00"/>
    <rect id="Rectangle_119" data-name="Rectangle 119" width="0.449" height="26.712" transform="translate(407.049 1238.28) rotate(-168.193)" fill="#ff8a00"/>
    <rect id="Rectangle_120" data-name="Rectangle 120" width="0.449" height="26.712" transform="translate(403.352 1237.514) rotate(-168.193)" fill="#ff8a00"/>
    <rect id="Rectangle_121" data-name="Rectangle 121" width="0.449" height="26.712" transform="translate(399.673 1236.737) rotate(-168.193)" fill="#ff8a00"/>
    <rect id="Rectangle_122" data-name="Rectangle 122" width="0.449" height="26.714" transform="matrix(-0.979, -0.204, 0.204, -0.979, 395.939, 1236.039)" fill="#ff8a00"/>
    <path id="Path_196" data-name="Path 196" d="M597.118,292.733a8.464,8.464,0,0,0,2.484-.988,29.616,29.616,0,0,0,2.754-2.185L587.54,294.6C587.525,294.588,594.379,293.6,597.118,292.733Z" transform="translate(-188.581 932.584)" fill="#ffa41c"/>
    <path id="Path_197" data-name="Path 197" d="M579.811,266.189a4.506,4.506,0,0,1,.539-.269,5.046,5.046,0,0,0,2.843,3.128,6.54,6.54,0,0,1,3.128,3.023,29.037,29.037,0,0,1-.449,7.692c-.045.254-3.412,6.45-3.457,6.7C576.234,275.139,579.242,267.446,579.811,266.189Z" transform="translate(-159.242 920.846)" fill="#aa0013" opacity="0.46"/>
    <path id="Path_198" data-name="Path 198" d="M559.925,268.111s-3.337,7.168,2.873,15.624c3.7,5.028,14.322,18.991,14.322,18.991s.09-7.512,18.287-7.512c0,0-16.028-22.328-20.008-26.548s-8.844-7.976-12.75-3.8Z" transform="translate(-138.968 919.418)" fill="#aa0013"/>
    <path id="Path_199" data-name="Path 199" d="M572.49,290.311a32.025,32.025,0,0,1-2.065-4.475l2.32-9.024,3.173-9.623s8.964,11.359,3.622,25.98c-3.262.015-4.609.015-4.774.015C574,292.227,573.238,291.254,572.49,290.311Z" transform="translate(-141.85 921.477)" fill="#ffcb1c" opacity="0.1"/>
    <path id="Path_200" data-name="Path 200" d="M582.97,259.45l3.023,7s-.269,4.849-3.966,7.572l-3.128-7.258Z" transform="translate(-159.289 917.634)" fill="#ffcda9"/>
    <path id="Path_201" data-name="Path 201" d="M578.912,254.581c2.245-2.23,9.922-7.468,13.14-.7,0,0,5.986,5.268-.359,12.137l-.3,3.053-2.365-2.978-1.407,1.945-8.949-6.809-1.392-4.1C579.975,257.006,579.331,256.781,578.912,254.581Z" transform="translate(-165.482 913.209)" fill="#131637"/>
    <path id="Path_202" data-name="Path 202" d="M578.857,254.86l1.242,15.788s9.937,1.886,11.433-6.495c0,0,3.831-1.9,2.125-4.445a1.667,1.667,0,0,0-1.586-.419,2.077,2.077,0,0,0-1.272.973,3.03,3.03,0,0,0-.314,1.841s-.913-.329-1.167-3.487a2.846,2.846,0,0,1-2.125-2.724S581.91,258.526,578.857,254.86Z" transform="translate(-167.328 915.355)" fill="#ffcda9"/>
    <path id="Path_203" data-name="Path 203" d="M589.882,257.68l-1.332,5.043h1.721Z" transform="translate(-178.008 916.755)" fill="#ffcda9"/>
    <path id="Path_204" data-name="Path 204" d="M589.979,261.49s-.569,3.4-3.457,3.711a4.387,4.387,0,0,1-.763.015l-.269-3.442Z" transform="translate(-173.137 918.647)" fill="#fff"/>
    <path id="Path_205" data-name="Path 205" d="M572.89,277.72l7.228,5.777.838-2.6Z" transform="translate(-145.258 926.705)" fill="url(#linear-gradient)"/>
    <path id="Path_206" data-name="Path 206" d="M590.744,266.284c-1.916-1.437-6.839-.838-6.136,7.108.9,10.012,2.1,22.672-12.6,33.073l1.422,3.711s20.772-6.63,21.1-31.172C594.56,275.921,594.515,269.112,590.744,266.284Z" transform="translate(-157.514 920.722)" fill="#aa0013"/>
    <rect id="Rectangle_123" data-name="Rectangle 123" width="2.29" height="4.385" transform="translate(417.64 1230.229) rotate(154.919)" fill="#ffab1c"/>
    <path id="Path_207" data-name="Path 207" d="M590.017,300.28a25.352,25.352,0,0,0,4.071-.733l2.514-2.23-1.616-3.981-1.063-.943-1.167-.524.239,1.242-.584.554-3.128.988-2.993.614.658,1.721.838.524,1.377,2.215Z" transform="translate(-180.956 933.731)" fill="#ffcda9"/>
    <path id="Path_208" data-name="Path 208" d="M334.468,240.56h59.217a19.7,19.7,0,0,1,16.806,9.413l23.675,38.685,17.195,5.477a16.623,16.623,0,0,1,12.5,14.112l5.866,47.859H327.18Z" transform="translate(333.684 908.255)" fill="#ff4337"/>
    <path id="Path_209" data-name="Path 209" d="M334.468,240.54h59.217a19.7,19.7,0,0,1,16.806,9.413l23.675,38.685,17.195,5.477a16.623,16.623,0,0,1,12.5,14.112l5.866,47.859H327.18Z" transform="translate(333.684 908.245)" fill="#f02830"/>
    <path id="Path_210" data-name="Path 210" d="M377.195,244.944h19.081V240.59a2.322,2.322,0,0,0-2.32-2.32H379.5a2.322,2.322,0,0,0-2.32,2.32v4.355Z" transform="translate(332.306 907.117)" fill="#f02830"/>
    <path id="Path_211" data-name="Path 211" d="M392.085,244.944h10.146V240.59a2.322,2.322,0,0,0-2.32-2.32H394.39a2.322,2.322,0,0,0-2.32,2.32v4.355Z" transform="translate(304.067 907.117)" fill="#f02830"/>
    <path id="Path_212" data-name="Path 212" d="M401.215,244.944h10.146V240.59a2.322,2.322,0,0,0-2.319-2.32H403.52a2.322,2.322,0,0,0-2.32,2.32v4.355Z" transform="translate(281.274 907.117)" fill="#f02830"/>
    <path id="Path_213" data-name="Path 213" d="M401.039,240.559c12.765-.838,17.539,7.557,18.826,9.667l9.7,34.375,13.379,3.307.449.748,7.423,3.053a16.6,16.6,0,0,1,8.44,12.466l5.866,51.929H336.42l7.273-115.561h57.346Z" transform="translate(324.459 908.225)" fill="#f02830"/>
    <path id="Path_214" data-name="Path 214" d="M413.7,240.51l3.517,115.1H413.7Z" transform="translate(256.712 908.23)" fill="#db132c"/>
    <path id="Path_215" data-name="Path 215" d="M421.056,245.54h-32.4a7.747,7.747,0,0,0-7.737,7.737V354.471h47.873V253.262A7.734,7.734,0,0,0,421.056,245.54Z" transform="translate(294.191 910.727)" fill="#db132c"/>
    <path id="Path_216" data-name="Path 216" d="M427.667,353.36V252.989a6.9,6.9,0,0,0-6.9-6.9h-32.4a6.9,6.9,0,0,0-6.9,6.9V353.36Z" transform="translate(294.494 911)" fill="#f02830"/>
    <path id="Path_217" data-name="Path 217" d="M338.02,324.922h63.722a33.752,33.752,0,0,0-63.722,0Z" transform="translate(385.443 938.914)" fill="#db132c"/>
    <rect id="Rectangle_124" data-name="Rectangle 124" width="236.225" height="172.039" rx="5" transform="translate(434.194 1091.805)" fill="#ffa600"/>
    <path id="Path_218" data-name="Path 218" d="M571.97,360.326h8.949l45.24-36.246H617.21Z" transform="translate(-189.083 949.723)" fill="#6508b5"/>
    <path id="Path_219" data-name="Path 219" d="M602.012,349.435h8.695a1.067,1.067,0,0,0,1.063-1.062h0a1.067,1.067,0,0,0-1.063-1.062h-8.695a1.067,1.067,0,0,0-1.063,1.063h0A1.076,1.076,0,0,0,602.012,349.435Z" transform="translate(-218.063 961.258)" fill="#410890"/>
    <path id="Path_220" data-name="Path 220" d="M696.451,335.707H332.214a9.172,9.172,0,0,1-9.144-9.144h0a9.172,9.172,0,0,1,9.144-9.144H696.451a9.172,9.172,0,0,1,9.144,9.144h0A9.181,9.181,0,0,1,696.451,335.707Z" transform="translate(103.964 946.417)" fill="#001b46"/>
    <path id="Path_221" data-name="Path 221" d="M588.924,331.113a38.815,38.815,0,0,1-.314,4.594H515.894a35.906,35.906,0,0,1-.314-4.594,36.528,36.528,0,0,1,2.664-13.693H586.26A36.525,36.525,0,0,1,588.924,331.113Z" transform="translate(-67.461 946.417)" fill="#00092a"/>
    <path id="Path_222" data-name="Path 222" d="M527.05,347.3c0,2.574,8.74,4.669,19.515,4.669s19.514-2.1,19.514-4.669-8.74-4.669-19.514-4.669S527.05,344.725,527.05,347.3Z" transform="translate(-61.78 958.934)" fill="#017abf" opacity="0.12"/>
    <path id="Path_223" data-name="Path 223" d="M346.27,347.3c0,2.574,8.74,4.669,19.515,4.669s19.515-2.1,19.515-4.669-8.74-4.669-19.515-4.669S346.27,344.725,346.27,347.3Z" transform="translate(389.54 958.934)" fill="#017abf" opacity="0.12"/>
    <ellipse id="Ellipse_23" data-name="Ellipse 23" cx="30.469" cy="30.469" rx="30.469" ry="30.469" transform="matrix(-0.082, -0.997, 0.997, -0.082, 456.922, 1310.407)" fill="#001b46"/>
    <path id="Path_224" data-name="Path 224" d="M527.65,332.742a18.6,18.6,0,1,0,18.6-18.6A18.6,18.6,0,0,0,527.65,332.742Z" transform="translate(-61.452 944.788)" fill="#001130"/>
    <ellipse id="Ellipse_24" data-name="Ellipse 24" cx="13.693" cy="13.693" rx="13.693" ry="13.693" transform="matrix(-0.082, -0.997, 0.997, -0.082, 472.257, 1292.304)" fill="#c4d4e2"/>
    <path id="Path_225" data-name="Path 225" d="M406.47,331.113a35.881,35.881,0,0,1-.329,4.594H335.969a35.887,35.887,0,0,1-.329-4.594,35.393,35.393,0,0,1,2.754-13.693h65.338A35.384,35.384,0,0,1,406.47,331.113Z" transform="translate(384.277 946.417)" fill="#00092a"/>
    <ellipse id="Ellipse_25" data-name="Ellipse 25" cx="30.468" cy="30.468" rx="30.468" ry="30.468" transform="matrix(-0.973, -0.23, 0.23, -0.973, 777.993, 1314.135)" fill="#001b46"/>
    <path id="Path_226" data-name="Path 226" d="M346.87,332.742a18.6,18.6,0,1,0,18.6-18.6A18.6,18.6,0,0,0,346.87,332.742Z" transform="translate(389.867 944.788)" fill="#001130"/>
    <path id="Path_227" data-name="Path 227" d="M350.15,331.113a13.693,13.693,0,1,0,13.693-13.693A13.7,13.7,0,0,0,350.15,331.113Z" transform="translate(391.496 946.417)" fill="#c4d4e2"/>
    <path id="Path_228" data-name="Path 228" d="M331.351,305.63a4.944,4.944,0,0,0,1.2,9.668,41.936,41.936,0,0,0-.15-4.834A16.862,16.862,0,0,0,331.351,305.63Z" transform="translate(469.841 940.563)" fill="#ffbd00"/>
    <path id="Path_229" data-name="Path 229" d="M340,308.053A11.246,11.246,0,0,1,338,285.74c0,.03.015.045.015.075,0,0,2.155,3.562,3.232,10.64a34.618,34.618,0,0,1-.509,11.538C340.5,308.008,340.256,308.053,340,308.053Z" transform="translate(459.529 930.687)" fill="#d1e8ff"/>
    <path id="Path_230" data-name="Path 230" d="M333.01,295.717a11.174,11.174,0,0,1,3.2-7.8,11.147,11.147,0,0,1,0,15.639A11.19,11.19,0,0,1,333.01,295.717Z" transform="translate(455.267 931.769)" fill="#fff"/>
    <path id="Path_231" data-name="Path 231" d="M355.6,287.311h-8.5a1.9,1.9,0,0,1-1.886-1.886h0a1.9,1.9,0,0,1,1.886-1.886h8.5a1.9,1.9,0,0,1,1.886,1.886h0A1.9,1.9,0,0,1,355.6,287.311Z" transform="translate(418.944 929.595)" fill="#db132c"/>
    <path id="Path_232" data-name="Path 232" d="M411.752,279.467H404.7a2.82,2.82,0,0,1-2.813-2.813h0a2.82,2.82,0,0,1,2.813-2.813h7.049a2.82,2.82,0,0,1,2.813,2.813h0A2.83,2.83,0,0,1,411.752,279.467Z" transform="translate(277.037 924.779)" fill="#a00c25"/>
    <path id="Path_233" data-name="Path 233" d="M388.826,247.41h30.155a5.994,5.994,0,0,1,5.986,5.986v23.016a5.994,5.994,0,0,1-5.986,5.986H388.826a5.994,5.994,0,0,1-5.986-5.986V253.4A5.994,5.994,0,0,1,388.826,247.41Z" transform="translate(295.144 911.656)" fill="#db132c"/>
    <path id="Path_234" data-name="Path 234" d="M419.691,281.158h-32.2a4.027,4.027,0,0,1-4.026-4.026V252.066a4.027,4.027,0,0,1,4.026-4.026h32.2a4.027,4.027,0,0,1,4.026,4.026v25.052A4.021,4.021,0,0,1,419.691,281.158Z" transform="translate(295.467 911.968)" fill="#003591"/>
    <path id="Path_235" data-name="Path 235" d="M356.218,283.32l35.872,2.379a1.662,1.662,0,0,0,.853-.239L369.417,247H357.834a6.9,6.9,0,0,0-6.884,6.884v24.169A5.285,5.285,0,0,0,356.218,283.32Z" transform="translate(374.893 911.452)" fill="#db132c"/>
    <path id="Path_236" data-name="Path 236" d="M371.122,248.11H357.728a5.244,5.244,0,0,0-5.238,5.238v24.169a3.609,3.609,0,0,0,3.607,3.607h34.42Z" transform="translate(375.014 912.003)" fill="#1fe5ff"/>
    <path id="Path_237" data-name="Path 237" d="M383.015,251.52l3.083,5.253-22.4,22.4a3.6,3.6,0,0,1-2.3-3.352v-2.679Z" transform="translate(366.114 913.696)" fill="#1fe5ff"/>
    <path id="Path_238" data-name="Path 238" d="M383.66,248.11,366.3,265.455v-3.607l13.738-13.738Z" transform="translate(361.204 912.003)" fill="#1fe5ff"/>
    <path id="Path_239" data-name="Path 239" d="M355.06,276.709,374.769,257l7.722,13.154-6.555,6.555Z" transform="translate(379.193 916.417)" fill="#1fe5ff"/>
    <path id="Path_240" data-name="Path 240" d="M386.779,285.474H361.922a1.367,1.367,0,0,1-1.362-1.362h0a1.367,1.367,0,0,1,1.362-1.362h24.857a1.367,1.367,0,0,1,1.362,1.362h0A1.377,1.377,0,0,1,386.779,285.474Z" transform="translate(365.313 929.203)" fill="#db132c"/>
    <path id="Path_241" data-name="Path 241" d="M386.779,288.794H361.922a1.367,1.367,0,0,1-1.362-1.362h0a1.367,1.367,0,0,1,1.362-1.362h24.857a1.367,1.367,0,0,1,1.362,1.362h0A1.367,1.367,0,0,1,386.779,288.794Z" transform="translate(365.313 930.851)" fill="#db132c"/>
    <rect id="Rectangle_125" data-name="Rectangle 125" width="48.607" height="172.039" transform="translate(527.996 1091.804)" fill="#ffa600"/>
    <rect id="Rectangle_126" data-name="Rectangle 126" width="48.607" height="236.225" transform="translate(434.187 1202.128) rotate(-90)" fill="#ffa600"/>
    <path id="Path_244" data-name="Path 244" d="M465.785,182.352s-4.744-7.572-4.744-22.552c0-8.62,3.607-10.58,7.243-10.865,2.439-.195,5.477-1.033,8.9,5.881,10.76,21.774,19.889,37.847,16.836,54.324-2.769,14.905-13.319,20.248-28.928,9.428-3.113-7.273,3.188-38.236,3.188-38.236" transform="translate(108.461 862.694)" fill="#131637"/>
    <path id="Path_245" data-name="Path 245" d="M504.95,172.677s-2.275-3.232-3.337-3.607c-4.43-1.526-13.918-5.836-18.721-16.881l-3.667,1.676s8.455,19.694,25.71,28.179C504.935,182.075,507.434,178.843,504.95,172.677Z" transform="translate(69.82 864.377)" fill="#ffcda9"/>
    <path id="Path_246" data-name="Path 246" d="M492.946,162.4l-8.156,2.365,1.466,2.11Z" transform="translate(74.595 869.447)" fill="#ffaf88"/>
    <path id="Path_247" data-name="Path 247" d="M488.875,161.9l-8.605,5.223s4.49,5.881,9.488,6.689c4.43-5.073,4.7-8.081,4.7-8.081A59.274,59.274,0,0,1,488.875,161.9Z" transform="translate(79.849 869.199)" fill="#ffac00"/>
    <path id="Path_248" data-name="Path 248" d="M483.487,172.546a9.96,9.96,0,0,1-3.218-1.182l7.917-6.914C488.187,164.465,487.917,167.473,483.487,172.546Z" transform="translate(86.119 870.465)" fill="#007df4" opacity="0.21"/>
    <path id="Path_249" data-name="Path 249" d="M504.689,155.854l-1.571-4.953-8.2-6.061s-1.661,1.392,4.22,5.507l-1.661,1.482.165,3.592,3.367,2.11,1.182,2.424Z" transform="translate(48.022 860.728)" fill="#ffcda9"/>
    <path id="Path_250" data-name="Path 250" d="M474.8,166.385a61.615,61.615,0,0,0-5.193,11.508l4.849,3.666a53.744,53.744,0,0,1-1.541,21.924l20.218,7.378s1.332-19.365,0-29.885c-1.347-10.67-3.232-12.75-6.974-16.013-1.317-1.137-.569-.419-2.3-.419h-5.9A3.523,3.523,0,0,0,474.8,166.385Z" transform="translate(96.545 870.4)" fill="#ffac00"/>
    <path id="Path_251" data-name="Path 251" d="M492.666,208.358H482.55l9.338-16.342,31.771-1.526,1.452,18.063s-17.434-1.018-30.9-6.016A23.8,23.8,0,0,1,492.666,208.358Z" transform="translate(45.783 883.394)" fill="#00216c"/>
    <path id="Path_252" data-name="Path 252" d="M550.193,198.166s-2.3,12.586-18.213,10.76-29.99-10.76-29.99-10.76-1.676,13.274-30.439,28.568l-1.541-3.1L497.8,189.89l32.16.913Z" transform="translate(39.467 883.096)" fill="#001f5e"/>
    <path id="Path_253" data-name="Path 253" d="M537.919,215.915l-2.424,3.277L522.55,211.68l13.828,1.137Z" transform="translate(-26.886 893.915)" fill="#000f1f"/>
    <path id="Path_254" data-name="Path 254" d="M472.7,157.211a1.691,1.691,0,1,0,1.691-1.691A1.671,1.671,0,0,0,472.7,157.211Z" transform="translate(109.552 866.031)" fill="#ffcda9"/>
    <path id="Path_255" data-name="Path 255" d="M483.621,166.327,475.6,173.9l1.033-7.572V160.7h6.989Z" transform="translate(97.673 868.603)" fill="#ffb89a"/>
    <path id="Path_256" data-name="Path 256" d="M475.316,152.82a2.336,2.336,0,0,1-1.706,1.931v6.076a5.63,5.63,0,0,0,.913,3.083c2.694,4.056,5.762,4.849,5.762,4.849s2.754-.718,5.342-4.25a6.879,6.879,0,0,0,1.332-4.041l-.763-5.747A9.363,9.363,0,0,1,475.316,152.82Z" transform="translate(97.314 864.69)" fill="#ffcda9"/>
    <path id="Path_257" data-name="Path 257" d="M475.521,158.237V154l-1.691-1.182S473.845,157.669,475.521,158.237Z" transform="translate(108.422 864.69)" fill="#131637"/>
    <path id="Path_258" data-name="Path 258" d="M480.885,155.37v3.816H478.76Z" transform="translate(95.68 865.956)" fill="#ff907d"/>
    <path id="Path_259" data-name="Path 259" d="M476.68,159.6a3,3,0,0,0,5.866-1.107Z" transform="translate(97.117 867.505)" fill="#fff"/>
    <path id="Path_260" data-name="Path 260" d="M499.481,183.807l-13.289-10.76a1.431,1.431,0,0,1,.12-2.3l15.414-10.027a2.362,2.362,0,0,1,2.754.135l12.87,10.236a.823.823,0,0,1-.03,1.3l-15.594,11.463A1.82,1.82,0,0,1,499.481,183.807Z" transform="translate(48.576 868.422)" fill="#d9f0ff"/>
    <path id="Path_261" data-name="Path 261" d="M499.555,181.408l-12.286-9.263a.75.75,0,0,1,.06-1.212l14.441-9.578a1.551,1.551,0,0,1,1.826.09l11.613,9.234a.443.443,0,0,1-.015.7l-13.708,10.072A1.574,1.574,0,0,1,499.555,181.408Z" transform="translate(48.876 868.801)" fill="#00216c"/>
    <path id="Path_262" data-name="Path 262" d="M502.168,163.008l-.03.374-4.041,2.828-1.167-1.077,4.415-2.933Z" transform="translate(47.206 869.348)" fill="#0032aa"/>
    <path id="Path_263" data-name="Path 263" d="M496.533,167.019l-.7.554a.239.239,0,0,0,0,.374L500.9,172.6l-.793.688-3.427-3.143a5.22,5.22,0,0,0-1.646-2.843,6.554,6.554,0,0,0-1.048-.778.314.314,0,0,0-.06-.09l-4.669-4.28a15.182,15.182,0,0,1,2.02.045Z" transform="translate(59.949 869.318)" fill="#0032aa"/>
    <path id="Path_264" data-name="Path 264" d="M500.788,165.749l3.262,2.993a4.664,4.664,0,0,0,.569,2.185l-4.759-4.37a5.124,5.124,0,0,1,.284-.658l.584-.389A.192.192,0,0,0,500.788,165.749Z" transform="translate(40.37 870.991)" fill="#63da4c"/>
    <path id="Path_265" data-name="Path 265" d="M497.449,169.206l-2.559-2.35,2.335-1.616.808.748a.384.384,0,0,0,.479.03l4.28-3.008,2.6,2.394a6.851,6.851,0,0,0-5.956.808A4.538,4.538,0,0,0,497.449,169.206Z" transform="translate(47.031 869.75)" fill="#0032aa"/>
    <path id="Path_266" data-name="Path 266" d="M499.42,168.047a7.094,7.094,0,0,1,.195-1.377l5.612,5.163-.913.7Z" transform="translate(40.421 871.567)" fill="#0032aa"/>
    <path id="Path_267" data-name="Path 267" d="M501.9,172.781a6.224,6.224,0,0,1-7.9-.359,4.141,4.141,0,0,1,.254-6.659,6.292,6.292,0,0,1,7.632.569A4.15,4.15,0,0,1,501.9,172.781Z" transform="translate(52.649 870.604)" fill="#0032aa"/>
    <path id="Path_268" data-name="Path 268" d="M500.164,171.3a4.367,4.367,0,0,1-5.537-.254,2.909,2.909,0,0,1,.18-4.669,4.4,4.4,0,0,1,5.343.4A2.9,2.9,0,0,1,500.164,171.3Z" transform="translate(53.206 871.065)" fill="#63da4c"/>
    <path id="Path_269" data-name="Path 269" d="M497.116,165.517l-1.422,1.107-4.744-4.355a12.328,12.328,0,0,1,3.8,1.377Z" transform="translate(61.207 869.382)" fill="#63da4c"/>
    <path id="Path_270" data-name="Path 270" d="M494.44,171.193l1.182-.913a7.16,7.16,0,0,0,5.642,1.5l1.063.973-3.232,2.724Z" transform="translate(50.773 873.359)" fill="#63da4c"/>
    <path id="Path_271" data-name="Path 271" d="M492.826,169.214l-3.7-3.4,1.437-1.137.135.1A8.842,8.842,0,0,1,492.826,169.214Z" transform="translate(68.22 870.579)" fill="#0032aa"/>
    <path id="Path_272" data-name="Path 272" d="M500.38,168.19l4.355,4-1.661,1.272-.748-.569A8.5,8.5,0,0,1,500.38,168.19Z" transform="translate(39.476 872.322)" fill="#0032aa"/>
    <path id="Path_273" data-name="Path 273" d="M496.84,172.392l1.6-1.242,4.819,4.43a12.971,12.971,0,0,1-3.412-.928Z" transform="translate(46.248 873.791)" fill="#0032aa"/>
    <path id="Path_274" data-name="Path 274" d="M490.07,172.714a5.937,5.937,0,0,0,2.245-1.152,4.559,4.559,0,0,0,1.706-3.532l2.918,2.679-3.711,3.217-1.018.748Z" transform="translate(62.701 872.242)" fill="#0032aa"/>
    <path id="Path_275" data-name="Path 275" d="M489.072,166.049l.494-.389,4.205,3.861a7.5,7.5,0,0,1,0,.823Z" transform="translate(67.35 871.066)" fill="#0032aa"/>
    <path id="Path_276" data-name="Path 276" d="M515.713,174.4a15.205,15.205,0,0,0-.988-2.993,3.691,3.691,0,0,0-6.66-.06c-2.245,4.445-6.36,10.206-12.78,11.014-12.66,1.586-22.6-6.854-22.6-6.854l-1.152,3.771s12.466,9.608,23.151,10.4a23.279,23.279,0,0,0,18.871-7.513A8.627,8.627,0,0,0,515.713,174.4Z" transform="translate(71.463 872.862)" fill="#ffd4a0"/>
    <path id="Path_277" data-name="Path 277" d="M476.26,174.24l.673,11.269,3.547-1.526-2.858-8.74Z" transform="translate(99.827 875.326)" fill="#ffaf88"/>
    <path id="Path_278" data-name="Path 278" d="M475.024,188.539c-1.571-4.624-3.352-8.814-3.966-12.361a48.162,48.162,0,0,0,4.175-5.911,4.394,4.394,0,0,1,7.991,1.063,10.772,10.772,0,0,1,.359,1.96,14.987,14.987,0,0,1-4.13,11.433A24.861,24.861,0,0,1,475.024,188.539Z" transform="translate(104.445 872.296)" fill="#ffac00"/>
    <path id="Path_279" data-name="Path 279" d="M508.383,175.966a5.8,5.8,0,0,1-1.033-1.871c-.224-1-1.931-4.729-3.382-3.487-.224.195-.224.584.3,1.167a2.707,2.707,0,0,1,.6,2.23l-5.747-4.145a6.593,6.593,0,0,0,.614,2.23,5.542,5.542,0,0,0,.494,2.05c.434.748.494,2.29,1.3,2.843s3.023,2.245,4.909,2.125A4.138,4.138,0,0,0,508.383,175.966Z" transform="translate(37.713 873.151)" fill="#ffd4a0"/>
    <path id="Path_280" data-name="Path 280" d="M390.554,268.79a15.883,15.883,0,0,0-4.086.643,6.288,6.288,0,0,1-.494-1.377c-.554-2.394,1.931-6.959,8.9-3.277,1.736.913,3.547,1.871,5.477,2.754A51.837,51.837,0,0,1,390.554,268.79Z" transform="translate(315.176 919.593)" fill="#950006"/>
    <path id="Path_281" data-name="Path 281" d="M400.151,273.949a28.227,28.227,0,0,0-7.438-11.089l-4.953,1.092,1.332,4.834a7.193,7.193,0,0,0,2.424,4,28.117,28.117,0,0,0,7.842,1.167C399.627,273.964,399.882,273.949,400.151,273.949Z" transform="translate(312.597 919.327)" fill="#870006"/>
    <path id="Path_282" data-name="Path 282" d="M391.13,272.061c.778-1.437,1.437-2.574,1.871-3.247,3.4-5.208,7.782-10.057,12.391-6.166l4.8,5.851s.1.928.15,2.379C403.925,271.208,397.52,271.522,391.13,272.061Z" transform="translate(297.36 918.521)" fill="#e70f40"/>
    <path id="Path_283" data-name="Path 283" d="M393.655,256.98l-2.005,8.066s1,5.208,5.178,7.542l2.08-8.351Z" transform="translate(308.019 916.407)" fill="#ffcda9"/>
    <path id="Path_284" data-name="Path 284" d="M405.317,248.22c.359,1.96-.853,4.564-2.35,4.894l-6.944,3.681-2.26,8.889-1.721-1.886-1.422-.015-1.886-2.215c-6.061-6.615-.389-12.9-.389-12.9.1-.224.239-.419.359-.629H404.03A5.237,5.237,0,0,1,405.317,248.22Z" transform="translate(310.095 911.968)" fill="#131637"/>
    <path id="Path_285" data-name="Path 285" d="M401.494,251.787l1.063,16.192s-9.817,3.637-12.616-5.178c0,0-4.19-1.437-2.828-4.475a1.644,1.644,0,0,1,1.541-.7,2.048,2.048,0,0,1,1.437.853,3.4,3.4,0,0,1,.6,1.931s.883-.494.658-3.951c0,0,1.931-.239,1.033-2.858,0,0,4.34.6,6.106-2.888A4.706,4.706,0,0,0,401.494,251.787Z" transform="translate(311.569 913.294)" fill="#ffcda9"/>
    <path id="Path_286" data-name="Path 286" d="M392.7,256.964c.015,0,.03-.015.045-.015l1.467-1.048,6.42-1.122a.117.117,0,0,0,.09-.135.127.127,0,0,0-.12-.1h0l-6.45,1.122c-.015,0-.03.015-.045.015l-1.482,1.063a.132.132,0,0,0-.03.165A.1.1,0,0,0,392.7,256.964Z" transform="translate(304.816 915.196)" fill="#002848"/>
    <path id="Path_287" data-name="Path 287" d="M388.315,253.91,390.2,259.3l-2.05.15Z" transform="translate(321.965 914.883)" fill="#ff7588"/>
    <path id="Path_288" data-name="Path 288" d="M387.63,258.17l6.719.688s-.688,3.4-3.771,2.918C388.019,261.373,387.63,258.17,387.63,258.17Z" transform="translate(318.594 916.998)" fill="#fff"/>
    <path id="Path_289" data-name="Path 289" d="M388.647,257.249a2.106,2.106,0,0,0,1.676-2.409,2.014,2.014,0,0,0-2.26-1.781,2.1,2.1,0,0,0-1.676,2.409A2.014,2.014,0,0,0,388.647,257.249Zm-.554-3.951a1.784,1.784,0,0,1,2.005,1.586,1.861,1.861,0,0,1-1.5,2.14,1.777,1.777,0,0,1-2.005-1.586A1.884,1.884,0,0,1,388.094,253.3Z" transform="translate(324.49 914.448)" fill="#002848"/>
    <path id="Path_290" data-name="Path 290" d="M392.307,257.579a2.1,2.1,0,0,0,1.676-2.409,2.014,2.014,0,0,0-2.26-1.781,2.106,2.106,0,0,0-1.676,2.409A1.988,1.988,0,0,0,392.307,257.579Zm-.554-3.951a1.777,1.777,0,0,1,2.005,1.586,1.861,1.861,0,0,1-1.5,2.14,1.777,1.777,0,0,1-2.005-1.586A1.869,1.869,0,0,1,391.754,253.628Z" transform="translate(315.353 914.612)" fill="#002848"/>
    <path id="Path_291" data-name="Path 291" d="M390.821,254.339l.09-.21a1.652,1.652,0,0,0-2.02.329l.165.15A1.441,1.441,0,0,1,390.821,254.339Z" transform="translate(320.147 914.888)" fill="#002848"/>
    <path id="Path_292" data-name="Path 292" d="M399.474,270.608l-2.873,1.8s-6.645-9.323-1.781-11.433C394.82,260.97,394.641,265.624,399.474,270.608Z" transform="translate(305.372 918.388)" fill="#ff385b"/>
    <path id="Path_293" data-name="Path 293" d="M392.041,265.206l-1,4.041,2.978,1.152a12.244,12.244,0,0,0-1.6-6.689Z" transform="translate(313.808 919.749)" fill="#ff385b"/>
    <path id="Path_294" data-name="Path 294" d="M423.746,264.58V267.9a5.062,5.062,0,0,1-5.058,5.058h-30.17a5.062,5.062,0,0,1-5.058-5.058V264.58Z" transform="translate(295.437 920.181)" fill="#1fe5ff"/>
    <path id="Path_321" data-name="Path 321" d="M594.846,257.84a38.382,38.382,0,0,1-17.06,2.365s-2.6-8.5,7.393-10.146C593.738,248.666,594.846,257.84,594.846,257.84Z" transform="translate(-166.016 912.899)" fill="#aa0013"/>
    <path id="Path_322" data-name="Path 322" d="M598.411,256.73s-7.692,4.789-14.471,2.26l7.078-2.17Z" transform="translate(-179.249 916.283)" fill="#00216c"/>
    <path id="Path_323" data-name="Path 323" d="M477.37,148.1a1.048,1.048,0,1,0,1.048-1.048A1.06,1.06,0,0,0,477.37,148.1Z" transform="translate(99.181 861.825)" fill="#00216c"/>
    <path id="Path_324" data-name="Path 324" d="M488.294,155.337s-8.979,1.526-15.594,0c0,0,.374-7.587,7.542-7.587S488.294,155.337,488.294,155.337Z" transform="translate(97.341 862.173)" fill="#ff1936"/>
    <path id="Path_325" data-name="Path 325" d="M491.715,153.189A16.327,16.327,0,0,1,484.442,156c-4.909.748-9.832-.269-9.832-1.212,0-.883,4.37-1.96,4.37-1.96A58.146,58.146,0,0,0,491.715,153.189Z" transform="translate(91.061 864.695)" fill="#00216c"/>
    <path id="Path_326" data-name="Path 326" d="M581.05,355.256l2.275,1.347c1.96-1.826,6.151-3.083,11-3.083s9.024,1.257,11,3.083l2.275-1.272-1.152,7.333h0c-.7,2.694-5.851,4.789-12.107,4.789s-11.4-2.1-12.107-4.789h0Z" transform="translate(-184.111 964.341)" fill="#b0e6ff"/>
    <path id="Path_327" data-name="Path 327" d="M589.63,358.18v2.843s-1.886,1.781-6.48,2.035v-2.843A15.8,15.8,0,0,0,589.63,358.18Z" transform="translate(-169.286 966.655)" fill="#beefff"/>
    <path id="Path_328" data-name="Path 328" d="M597.958,359.282l.254,3.128a7.808,7.808,0,0,1-2.679-1.616l-.4-2.963A11.535,11.535,0,0,0,597.958,359.282Z" transform="translate(-195.797 966.481)" fill="#beefff"/>
    <path id="Path_329" data-name="Path 329" d="M581.07,356.636c0,3.262,5.941,5.9,13.259,5.9,7.333,0,13.259-2.649,13.259-5.9s-5.941-5.9-13.259-5.9S581.07,353.389,581.07,356.636Z" transform="translate(-184.131 962.961)" fill="#d4faff"/>
    <path id="Path_330" data-name="Path 330" d="M582.45,355.933c0,2.754,5.013,4.983,11.194,4.983s11.194-2.23,11.194-4.983-5.013-4.983-11.194-4.983S582.45,353.18,582.45,355.933Z" transform="translate(-183.446 963.065)" fill="#a0d8ff"/>
    <path id="Path_331" data-name="Path 331" d="M601.214,353.3s7.423-18.886,4.37-22.672-9.473,17.375-9.473,17.375,1.317-17.15-1.886-17.824-4.16,8.2-4.16,8.2-3.218-8.53-5.851-8.231c-2.649.3,1.317,14.292,1.317,14.292s-1.99-4.385-4.4-4.938,3.831,21.475,3.831,21.475l7.647-1.063" transform="translate(-182.127 952.735)" fill="#1abc9c"/>
    <path id="Path_332" data-name="Path 332" d="M602.984,363.759s5.7-3.008,5.163-5.9-5.836,1-5.836,1,9.967-13.319-4.415-21.251c-12.975-7.153-10.4,19.455-10.4,19.455s-2.933-3.622-5.9-2.843c-3.831,1,3.547,9.533,3.547,9.533A142.225,142.225,0,0,0,602.984,363.759Z" transform="translate(-183.867 955.838)" fill="#e70f40"/>
    <path id="Path_333" data-name="Path 333" d="M598.871,361.89s5.163-3.128,3.7-4.849-4.43,1.452-4.43,1.452,4.744-11.568,1.377-14.531-6.645,10.356-6.645,10.356-.1-8.77-3.158-8.874-.943,12.242-.943,12.242-2.424-8.336-4.534-8.126,1.8,9.8,1.8,9.8-1.063-1.856-2.424-1.586,1.781,4.115,1.781,4.115S590.805,364.284,598.871,361.89Z" transform="translate(-182.657 959.383)" fill="#b90235"/>
    <rect id="Rectangle_127" data-name="Rectangle 127" width="35.316" height="35.316" transform="matrix(-0.332, -0.943, 0.943, -0.332, 622.134, 1257.307)" fill="#ffa700"/>
    <rect id="Rectangle_128" data-name="Rectangle 128" width="34.329" height="34.329" transform="matrix(-0.332, -0.943, 0.943, -0.332, 622.451, 1256.671)" fill="#ffd300"/>
    <rect id="Rectangle_129" data-name="Rectangle 129" width="7.229" height="2.08" transform="translate(632.507 1252.104) rotate(160.587)" fill="#ffa700"/>
    <rect id="Rectangle_130" data-name="Rectangle 130" width="26.712" height="26.712" transform="matrix(-0.332, -0.943, 0.943, -0.332, 624.766, 1251.809)" fill="#ffa700"/>
    <rect id="Rectangle_131" data-name="Rectangle 131" width="26.714" height="0.449" transform="translate(646.015 1244.252) rotate(-109.426)" fill="#ff8a00"/>
    <rect id="Rectangle_132" data-name="Rectangle 132" width="26.713" height="0.449" transform="translate(642.462 1245.51) rotate(-109.408)" fill="#ff8a00"/>
    <rect id="Rectangle_133" data-name="Rectangle 133" width="26.713" height="0.449" transform="translate(638.921 1246.76) rotate(-109.408)" fill="#ff8a00"/>
    <rect id="Rectangle_134" data-name="Rectangle 134" width="26.713" height="0.449" transform="translate(635.367 1248.016) rotate(-109.408)" fill="#ff8a00"/>
    <rect id="Rectangle_135" data-name="Rectangle 135" width="26.713" height="0.449" transform="translate(631.812 1249.271) rotate(-109.408)" fill="#ff8a00"/>
    <rect id="Rectangle_136" data-name="Rectangle 136" width="26.713" height="0.449" transform="translate(628.268 1250.509) rotate(-109.39)" fill="#ff8a00"/>
    <rect id="Rectangle_137" data-name="Rectangle 137" width="35.316" height="35.316" transform="matrix(-0.332, -0.943, 0.943, -0.332, 633.859, 1290.556)" fill="#ffa700"/>
    <rect id="Rectangle_138" data-name="Rectangle 138" width="34.329" height="34.329" transform="matrix(-0.332, -0.943, 0.943, -0.332, 634.174, 1289.923)" fill="#ffd300"/>
    <rect id="Rectangle_139" data-name="Rectangle 139" width="7.229" height="2.08" transform="translate(644.24 1285.353) rotate(160.587)" fill="#ffa700"/>
    <rect id="Rectangle_140" data-name="Rectangle 140" width="26.712" height="26.712" transform="matrix(-0.332, -0.943, 0.943, -0.332, 636.491, 1285.059)" fill="#ffa700"/>
    <rect id="Rectangle_141" data-name="Rectangle 141" width="26.713" height="0.449" transform="translate(657.736 1277.507) rotate(-109.408)" fill="#ff8a00"/>
    <rect id="Rectangle_142" data-name="Rectangle 142" width="26.714" height="0.449" transform="translate(654.18 1278.76) rotate(-109.444)" fill="#ff8a00"/>
    <rect id="Rectangle_143" data-name="Rectangle 143" width="26.714" height="0.449" transform="translate(650.627 1280.017) rotate(-109.426)" fill="#ff8a00"/>
    <rect id="Rectangle_144" data-name="Rectangle 144" width="26.714" height="0.449" transform="translate(647.086 1281.267) rotate(-109.426)" fill="#ff8a00"/>
    <rect id="Rectangle_145" data-name="Rectangle 145" width="26.713" height="0.449" transform="translate(643.533 1282.524) rotate(-109.408)" fill="#ff8a00"/>
    <rect id="Rectangle_146" data-name="Rectangle 146" width="26.713" height="0.449" transform="translate(639.987 1283.761) rotate(-109.408)" fill="#ff8a00"/>
    <rect id="Rectangle_147" data-name="Rectangle 147" width="35.316" height="35.316" transform="matrix(-0.332, -0.943, 0.943, -0.332, 645.582, 1323.81)" fill="#ffa700"/>
    <rect id="Rectangle_148" data-name="Rectangle 148" width="34.329" height="34.329" transform="matrix(-0.332, -0.943, 0.943, -0.332, 645.883, 1323.181)" fill="#ffd300"/>
    <rect id="Rectangle_149" data-name="Rectangle 149" width="7.228" height="2.08" transform="matrix(-0.943, 0.332, -0.332, -0.943, 656.003, 1318.555)" fill="#ffa700"/>
    <rect id="Rectangle_150" data-name="Rectangle 150" width="26.712" height="26.712" transform="matrix(-0.332, -0.943, 0.943, -0.332, 648.217, 1318.329)" fill="#ffa700"/>
    <rect id="Rectangle_151" data-name="Rectangle 151" width="26.713" height="0.449" transform="translate(669.448 1310.779) rotate(-109.408)" fill="#ff8a00"/>
    <rect id="Rectangle_152" data-name="Rectangle 152" width="26.713" height="0.449" transform="translate(665.902 1312.016) rotate(-109.408)" fill="#ff8a00"/>
    <rect id="Rectangle_153" data-name="Rectangle 153" width="26.712" height="0.449" transform="matrix(-0.332, -0.943, 0.943, -0.332, 662.384, 1313.308)" fill="#ff8a00"/>
    <rect id="Rectangle_154" data-name="Rectangle 154" width="26.713" height="0.449" transform="translate(658.808 1314.522) rotate(-109.408)" fill="#ff8a00"/>
    <rect id="Rectangle_155" data-name="Rectangle 155" width="26.714" height="0.449" transform="translate(655.252 1315.776) rotate(-109.426)" fill="#ff8a00"/>
    <rect id="Rectangle_156" data-name="Rectangle 156" width="26.714" height="0.449" transform="translate(651.697 1317.032) rotate(-109.426)" fill="#ff8a00"/>
    <rect id="Rectangle_157" data-name="Rectangle 157" width="7.707" height="35.676" transform="matrix(-0.332, -0.943, 0.943, -0.332, 648.692, 1329.679)" fill="#bec5c1"/>
    <rect id="Rectangle_158" data-name="Rectangle 158" width="2.005" height="35.676" transform="matrix(-0.332, -0.943, 0.943, -0.332, 650.197, 1329.151)" fill="#a99ba7"/>
    <path id="Path_334" data-name="Path 334" d="M419.641,351.517a8.61,8.61,0,1,1-10.984-5.253A8.613,8.613,0,0,1,419.641,351.517Z" transform="translate(269.941 960.492)" fill="#002c41"/>
    <path id="Path_335" data-name="Path 335" d="M414.627,351.516a4.681,4.681,0,1,1-5.971-2.858A4.688,4.688,0,0,1,414.627,351.516Z" transform="translate(271.259 961.796)" fill="#fff"/>
    <path id="Path_336" data-name="Path 336" d="M412.337,351.519a2.88,2.88,0,1,1-3.681-1.766A2.892,2.892,0,0,1,412.337,351.519Z" transform="translate(271.843 962.391)" fill="#bec5c1"/>
    <path id="Path_337" data-name="Path 337" d="M479.842,389.787a2.28,2.28,0,0,0,1.392-2.9l-27.955-79.315c-.224-.763-1.766-5.462-5.866-7.6a10.232,10.232,0,0,0-8.47-.314l-5.567,1.96a2.277,2.277,0,0,0,1.512,4.3l5.567-1.96a5.834,5.834,0,0,1,4.849.06c2.589,1.362,3.607,4.834,3.607,4.879s.03.1.045.15l27.97,79.375A2.32,2.32,0,0,0,479.842,389.787Z" transform="translate(165.399 937.218)" fill="#8f8781"/>
    <path id="Path_338" data-name="Path 338" d="M460.38,312.779a1.458,1.458,0,0,0,.808-.718l3.442-7.2,6.36-2.245a1.406,1.406,0,0,0-.943-2.649l-6.914,2.439a1.417,1.417,0,0,0-.808.718l-3.7,7.737a1.4,1.4,0,0,0,.658,1.871A1.619,1.619,0,0,0,460.38,312.779Z" transform="translate(134.967 937.709)" fill="#8f8781"/>
    <path id="Path_339" data-name="Path 339" d="M443.711,360a8.61,8.61,0,1,1-10.984-5.253A8.613,8.613,0,0,1,443.711,360Z" transform="translate(209.85 964.703)" fill="#002c41"/>
    <path id="Path_340" data-name="Path 340" d="M438.707,360.008a4.681,4.681,0,1,1-5.971-2.858A4.688,4.688,0,0,1,438.707,360.008Z" transform="translate(211.143 966.009)" fill="#fff"/>
    <path id="Path_341" data-name="Path 341" d="M436.407,360.01a2.88,2.88,0,1,1-3.681-1.766A2.892,2.892,0,0,1,436.407,360.01Z" transform="translate(211.752 966.606)" fill="#bec5c1"/>
    <path id="Path_342" data-name="Path 342" d="M450.9,277.045l1.407-1.646-3.8-2.529-.988,1.945,1.916,1.856Z" transform="translate(171.008 924.297)" fill="#ffe51c"/>
    <path id="Path_343" data-name="Path 343" d="M454.9,282.336c-.15-2.439,3.5-4.145,8.785-4.115,6.555,7.034,10.85,20.607,26.129,6.719l5.148.15S480.45,308.36,463,293.245C457.942,288.83,455.144,286.376,454.9,282.336Z" transform="translate(117.306 926.953)" fill="#1abc9c"/>
    <path id="Path_344" data-name="Path 344" d="M450.243,285.354a14.048,14.048,0,0,1,1.571-2.754s1.467-.539,2.215-.12c0,0,4.25-.584,3.816.584s-3.816-.584-3.816-.584,1.96.18,2.813-.643,2.335-3.307,3.068-3.307c.748,0,.494.733.494.733s-2.664,2.439-3.232,2.963c-.494.464-.165.554-.165.554s3.651-2.08,4.31-2.439,1.107-.15,1.227.524c0,0-1.945,1.122-3.083,1.916-.389.269-1.9.973-1.571,1.392,0,0,3.322-1.452,3.846-1.766a.6.6,0,0,1,.958.643l-4.355,2.32s-.269.224-.075.344a11.509,11.509,0,0,0,2.694-.359c.224-.1.988-.374,1.107.269,0,0,.015.224-.688.479s-4,1.586-4,1.586a11.037,11.037,0,0,1-4.7,1.078c-2.649-.03-.554-.015-1.96,0l-.18-1.437Z" transform="translate(156.537 927.107)" fill="#ffcda9"/>
    <path id="Path_345" data-name="Path 345" d="M457.291,276.333l14.217,6.555a1.3,1.3,0,0,1,.419,2.065l-15.369,17.09a2.16,2.16,0,0,1-2.469.509l-13.738-6.181a.757.757,0,0,1-.269-1.167l15.2-18.407A1.658,1.658,0,0,1,457.291,276.333Z" transform="translate(162.434 925.937)" fill="#d9f0ff"/>
    <path id="Path_346" data-name="Path 346" d="M456.918,277l12.72,5.911a.694.694,0,0,1,.225,1.092l-14.606,16.462a1.441,1.441,0,0,1-1.646.329l-12.391-5.582a.412.412,0,0,1-.15-.629l14.112-17.195A1.5,1.5,0,0,1,456.918,277Z" transform="translate(163.062 926.285)" fill="#002fc8"/>
    <path id="Path_347" data-name="Path 347" d="M454.621,290.3a15.293,15.293,0,0,0-.883-4.609L455.13,284a17.741,17.741,0,0,1,1.377,6.495,18.3,18.3,0,0,1,9.413,3.741l-1.212,1.377c-2.424-1.96-6.734-3.831-14.187-3.442l-1.033-.464a.412.412,0,0,1-.15-.629l.629-.763A32.279,32.279,0,0,1,454.621,290.3Z" transform="translate(154.808 929.823)" fill="#001db1"/>
    <path id="Path_348" data-name="Path 348" d="M443,279.572l1.227-1.482a17.793,17.793,0,0,0,10.685,2.694c.03-.224.075-.434.1-.658l1.781.823a14.069,14.069,0,0,0,.3,5.672l-1.452,1.631a14.78,14.78,0,0,1-.883-5.6c-.4.03-.808.075-1.2.075A19.607,19.607,0,0,1,443,279.572Z" transform="translate(172.984 926.889)" fill="#001db1"/>
    <path id="Path_349" data-name="Path 349" d="M448.172,290.487c2.5,1.571,6.525.823,8.964-1.661,2.439-2.5,2.394-5.792-.1-7.363s-6.525-.823-8.964,1.661S445.673,288.9,448.172,290.487Z" transform="translate(166.255 928.155)" fill="#1abc9c"/>
    <path id="Path_350" data-name="Path 350" d="M448.563,289.436c2.08,1.317,5.432.688,7.468-1.392s1.99-4.819-.09-6.136-5.432-.688-7.468,1.392S446.467,288.134,448.563,289.436Z" transform="translate(166.613 928.443)" fill="#00143e"/>
    <path id="Path_351" data-name="Path 351" d="M449.53,286.821a3.2,3.2,0,0,0,3.741-.688c1.018-1.048,1-2.424-.045-3.068a3.2,3.2,0,0,0-3.741.688C448.453,284.785,448.483,286.162,449.53,286.821Z" transform="translate(167.486 929.187)" fill="#ffe40a"/>
    <path id="Path_352" data-name="Path 352" d="M453,281.622l7.542-1.152a1.931,1.931,0,0,1-1.526,1.616,27.278,27.278,0,0,0-3.083.838,3.949,3.949,0,0,1-2.23,2.23c-1.631.539-1.167-1-1.167-1Z" transform="translate(155.347 928.07)" fill="#ffcda9"/>
    <path id="Path_353" data-name="Path 353" d="M460.54,365.164c0,3.876,13.154,7.034,29.377,7.034s29.377-3.143,29.377-7.034-13.154-7.034-29.377-7.034S460.54,361.273,460.54,365.164Z" transform="translate(84.539 966.63)" fill="#017abf" opacity="0.12"/>
    <path id="Path_354" data-name="Path 354" d="M421.89,366.428c0,1.631,5.522,2.948,12.316,2.948s12.316-1.317,12.316-2.948S441,363.48,434.206,363.48C427.4,363.495,421.89,364.812,421.89,366.428Z" transform="translate(215.15 969.286)" fill="#017abf" opacity="0.12"/>
    <path id="Path_355" data-name="Path 355" d="M465.53,360.74v2.9h12.062l-8.171-2.9Z" transform="translate(118.772 967.926)" fill="#000f1f"/>
    <path id="Path_356" data-name="Path 356" d="M485.77,360.74v2.9l7.288,3.337h3.277l-6.106-6.241Z" transform="translate(69.74 967.926)" fill="#000f1f"/>
    <path id="Path_357" data-name="Path 357" d="M504.935,308.83v77.684h-3.891s-6.48-18.123-5.432-35.991l-4.4-26.937-14.5,62.928h-4.4s-3.831-23.226,1.556-37.293l2.065-40.391Z" transform="translate(83.259 942.152)" fill="#001f5e"/>
    <path id="Path_358" data-name="Path 358" d="M500.247,309.858s-7.078,5.537-29.257,4.864l.254-4.864,16.746-3.1" transform="translate(87.947 941.124)" fill="#002460"/>
    <path id="Path_359" data-name="Path 359" d="M476.85,321.972l4.953-9.892-.554,36.829Z" transform="translate(97.62 943.765)" fill="#00143e"/>
    <path id="Path_360" data-name="Path 360" d="M489.422,259.245a4.359,4.359,0,0,0-3.861.614c-3.113-.09-9.593-.434-10.506,4.056,0,0-9.518,6.9,2.424,16.043l3.068.359,4.43-3.652,6.45-7.363s5.417-4.654,2.858-7.976C491.636,263.226,492.624,260.472,489.422,259.245Z" transform="translate(92.516 917.434)" fill="#131637"/>
    <path id="Path_361" data-name="Path 361" d="M473.861,266.35s2.05,1.841,2.439,6.51h-4.16Z" transform="translate(110.172 921.06)" fill="#ff907d"/>
    <path id="Path_362" data-name="Path 362" d="M478.587,272.047l-.314,1.871-4.235-.928-.808-1.8,1.3-.494" transform="translate(106.254 923.22)" fill="#fbffff"/>
    <path id="Path_363" data-name="Path 363" d="M475.295,274.638v.943a5.552,5.552,0,0,0,2.245-3.741s-3.247-.673-2.694-3.038c.464-1.96,2.933-1.3,3.711.389v2.26s1.272-.03,1.5-4.355l1.482-1.916,5.537,1.077a17.375,17.375,0,0,1,.913,8.53H484.5a4.633,4.633,0,0,0,3.173,1.871,16.587,16.587,0,0,1-.988,3.068h-5.118l.419,11.748-6.211-2.05-1.287-2.813-1.347-1.347V276.9A4.9,4.9,0,0,0,475.295,274.638Z" transform="translate(96.856 920.479)" fill="#ffcda9"/>
    <path id="Path_364" data-name="Path 364" d="M477.01,266.175a2.185,2.185,0,1,0,2.185-2.185A2.187,2.187,0,0,0,477.01,266.175Z" transform="translate(97.805 919.888)" fill="#131637"/>
    <path id="Path_365" data-name="Path 365" d="M471.544,324.3s15.893,4.31,29,0c0,0-1.766-27.82-4.669-40.092-.748-3.158-1.526-6.525-4.968-6.525L491,283.7l-8.68-6.016c-.254,0-4.1.614-5.073,1.736-1.811,2.1-3.292,4.086-3.487,6.839L470.99,324.79Z" transform="translate(87.647 926.685)" fill="#1abc9c"/>
    <path id="Path_366" data-name="Path 366" d="M497.9,316.626c-13.409-7.662-15.309-19.769-16.9-29.586-1.152-7.168-5.013-8.036-7.318-6.989a9.751,9.751,0,0,0-2.155,5.208l-.524,7.228c.254,1.317.554,2.484.793,3.367,5.088,18.931,18.961,25.082,26.473,27.042C498.232,322.014,498.082,319.739,497.9,316.626Z" transform="translate(89.887 927.681)" fill="#1abc9c"/>
    <path id="Path_367" data-name="Path 367" d="M467.78,281.2c1.437-2.26,6.809-3.607,9.248,4.983,3.068,10.82,3.8,22.193,23.3,27.192l-.958,3.951S479.034,321.5,468.917,296C467.645,292.786,464.966,285.663,467.78,281.2Z" transform="translate(94.524 927.592)" fill="#1abc9c"/>
    <path id="Path_368" data-name="Path 368" d="M469.752,306.628l-3.352-.03,2.11-5,3.038.748Z" transform="translate(123.514 938.562)" fill="#1abc9c"/>
    <path id="Path_369" data-name="Path 369" d="M466.723,310.508a9.614,9.614,0,0,1-2.754-.928l-2.409-2.873L464,302.562l1.317-.868,1.556-.434-.419,1.152.329.943,2.634,1.347,2.02-.718-.494,1.676-1.347,1.122-1.826,3.247Z" transform="translate(130.869 938.393)" fill="#ffcda9"/>
    <path id="Path_370" data-name="Path 370" d="M446.79,279.143a5.013,5.013,0,1,0,5.013-5.013A5.014,5.014,0,0,0,446.79,279.143Z" transform="translate(167.592 924.923)" fill="#1abc9c"/>
    <path id="Path_371" data-name="Path 371" d="M448.25,278.418a2.828,2.828,0,1,0,2.828-2.828A2.836,2.836,0,0,0,448.25,278.418Z" transform="translate(168.317 925.647)" fill="#1abc9c"/>
    <path id="Path_372" data-name="Path 372" d="M449.11,277.991a1.541,1.541,0,1,0,1.541-1.541A1.539,1.539,0,0,0,449.11,277.991Z" transform="translate(168.744 926.074)" fill="#1abc9c"/>
    <path id="Path_373" data-name="Path 373" d="M449.67,277.713a.7.7,0,1,0,.7-.7A.7.7,0,0,0,449.67,277.713Z" transform="translate(169.022 926.353)" fill="#3bfaff"/>
    <path id="Path_374" data-name="Path 374" d="M444.39,270.068c0,4.759,8.6,15.893,8.6,15.893s8.6-11.149,8.6-15.893-3.861-9.608-8.6-9.608S444.39,265.309,444.39,270.068Z" transform="translate(166.401 918.135)" fill="#d81028"/>
    <path id="Path_375" data-name="Path 375" d="M444.3,269.11a8.74,8.74,0,1,0,8.74-8.74A8.74,8.74,0,0,0,444.3,269.11Z" transform="translate(166.356 918.09)" fill="#d81028"/>
    <path id="Path_376" data-name="Path 376" d="M444.96,268.782a7.752,7.752,0,1,0,7.752-7.752A7.754,7.754,0,0,0,444.96,268.782Z" transform="translate(166.684 918.418)" fill="#d81028"/>
    <path id="Path_377" data-name="Path 377" d="M447.74,267.4a3.592,3.592,0,1,0,3.592-3.592A3.592,3.592,0,0,0,447.74,267.4Z" transform="translate(168.064 919.798)" fill="#ffe40a"/>
    <path id="Path_378" data-name="Path 378" d="M507.44,356.569c0,2.634,12.047,4.759,26.922,4.759s26.922-2.14,26.922-4.759-12.047-4.759-26.922-4.759S507.44,353.935,507.44,356.569Z" transform="translate(-27.639 963.492)" fill="#017abf" opacity="0.12"/>
    <rect id="Rectangle_159" data-name="Rectangle 159" width="47.44" height="47.44" transform="translate(482.764 1272.591)" fill="#ffa700"/>
    <rect id="Rectangle_160" data-name="Rectangle 160" width="46.123" height="46.123" transform="translate(483.437 1273.25)" fill="#ffd300"/>
    <rect id="Rectangle_161" data-name="Rectangle 161" width="9.712" height="2.798" transform="translate(488.555 1315.302)" fill="#ffa700"/>
    <rect id="Rectangle_162" data-name="Rectangle 162" width="35.886" height="35.886" transform="translate(488.541 1278.383)" fill="#ffa700"/>
    <rect id="Rectangle_163" data-name="Rectangle 163" width="0.614" height="35.886" transform="translate(518.815 1278.368)" fill="#ff8a00"/>
    <rect id="Rectangle_164" data-name="Rectangle 164" width="0.614" height="35.886" transform="translate(513.772 1278.368)" fill="#ff8a00"/>
    <rect id="Rectangle_165" data-name="Rectangle 165" width="0.614" height="35.886" transform="translate(508.714 1278.368)" fill="#ff8a00"/>
    <rect id="Rectangle_166" data-name="Rectangle 166" width="0.614" height="35.886" transform="translate(503.655 1278.383)" fill="#ff8a00"/>
    <rect id="Rectangle_167" data-name="Rectangle 167" width="0.614" height="35.886" transform="translate(498.597 1278.383)" fill="#ff8a00"/>
    <rect id="Rectangle_168" data-name="Rectangle 168" width="0.614" height="35.886" transform="translate(493.539 1278.383)" fill="#ff8a00"/>
    <path id="Path_379" data-name="Path 379" d="M354.93,370.43c0,2.3,10.58,4.19,23.63,4.19s23.63-1.871,23.63-4.19-10.58-4.19-23.63-4.19S354.93,368.111,354.93,370.43Z" transform="translate(359.689 970.657)" fill="#017abf" opacity="0.12"/>
    <rect id="Rectangle_169" data-name="Rectangle 169" width="41.633" height="41.633" transform="translate(717.238 1299.424)" fill="#ffa700"/>
    <rect id="Rectangle_170" data-name="Rectangle 170" width="40.481" height="40.496" transform="translate(717.822 1299.992)" fill="#ffd300"/>
    <rect id="Rectangle_171" data-name="Rectangle 171" width="8.515" height="2.454" transform="translate(722.311 1336.911)" fill="#ffa700"/>
    <rect id="Rectangle_172" data-name="Rectangle 172" width="31.502" height="31.502" transform="translate(722.296 1304.497)" fill="#ffa700"/>
    <rect id="Rectangle_173" data-name="Rectangle 173" width="0.539" height="31.502" transform="translate(748.874 1304.497)" fill="#ff8a00"/>
    <rect id="Rectangle_174" data-name="Rectangle 174" width="0.539" height="31.502" transform="translate(744.444 1304.497)" fill="#ff8a00"/>
    <rect id="Rectangle_175" data-name="Rectangle 175" width="0.539" height="31.502" transform="translate(740 1304.497)" fill="#ff8a00"/>
    <rect id="Rectangle_176" data-name="Rectangle 176" width="0.539" height="31.502" transform="translate(735.555 1304.497)" fill="#ff8a00"/>
    <rect id="Rectangle_177" data-name="Rectangle 177" width="0.539" height="31.502" transform="translate(731.125 1304.497)" fill="#ff8a00"/>
    <rect id="Rectangle_178" data-name="Rectangle 178" width="0.539" height="31.502" transform="translate(726.681 1304.497)" fill="#ff8a00"/>
    <path id="Path_380" data-name="Path 380" d="M407.892,379.29c0,3.562-6.495,6.45-14.5,6.45s-14.5-2.888-14.5-6.45,6.495-6.45,14.5-6.45S407.892,375.728,407.892,379.29Z" transform="translate(318.13 973.934)" fill="#017abf" opacity="0.09"/>
    <path id="Path_381" data-name="Path 381" d="M407.693,366.263l-2.335.554c-2.14-1.99-6.719-3.367-12.017-3.367s-9.862,1.377-12.017,3.367l-2.335-.554,1.122,17.135h0c.763,2.948,6.39,5.238,13.229,5.238s12.451-2.29,13.229-5.238h0Z" transform="translate(318.18 969.271)" fill="#b0e6ff"/>
    <path id="Path_382" data-name="Path 382" d="M390.6,375.18v2.843a14.388,14.388,0,0,0,6.48,1.227v-2.843A14.263,14.263,0,0,1,390.6,375.18Z" transform="translate(311.418 975.095)" fill="#beefff"/>
    <path id="Path_383" data-name="Path 383" d="M387.4,372.84v2.843a15.6,15.6,0,0,1-6.39,2.065v-2.843A15.4,15.4,0,0,0,387.4,372.84Z" transform="translate(335.45 973.934)" fill="#beefff"/>
    <path id="Path_384" data-name="Path 384" d="M390.6,371.48v2.843a14.387,14.387,0,0,0,6.48,1.227v-2.843A14.5,14.5,0,0,1,390.6,371.48Z" transform="translate(311.418 973.258)" fill="#beefff"/>
    <path id="Path_385" data-name="Path 385" d="M407.892,366.85c0,3.562-6.495,6.45-14.5,6.45s-14.5-2.888-14.5-6.45,6.495-6.45,14.5-6.45S407.892,363.288,407.892,366.85Z" transform="translate(318.13 967.757)" fill="#d4faff"/>
    <path id="Path_386" data-name="Path 386" d="M403.637,365.953c0,2.784-5.073,5.043-11.314,5.043s-11.314-2.26-11.314-5.043,5.073-5.043,11.314-5.043S403.637,363.17,403.637,365.953Z" transform="translate(319.213 968.01)" fill="#a0d8ff"/>
    <path id="Path_387" data-name="Path 387" d="M415.217,373.2,388.923,349.06s-.224,5.4,3.352,8.261,6.45,1.856,6.9,6.345,3.472,7.064,6.121,7.453C410.712,371.927,411.969,374.815,415.217,373.2Z" transform="translate(295.796 962.126)" fill="#ffc400"/>
    <path id="Path_388" data-name="Path 388" d="M414.99,373.218,388.7,349.08s5.358-.688,8.53,2.634,2.394,6.27,6.914,6.33,7.333,2.858,7.946,5.462C413.329,368.834,416.322,369.836,414.99,373.218Z" transform="translate(296.022 962.107)" fill="#ffc400"/>
    <path id="Path_389" data-name="Path 389" d="M404.418,395.489v-90.6s-10.491,8.859-9.712,20.442c.763,11.583,7.6,15.234-.045,23.78s-7.243,18.587-3.412,24.229C399.076,384.864,395.813,392.2,404.418,395.489Z" transform="translate(307.103 940.195)" fill="#1abc9c"/>
    <path id="Path_390" data-name="Path 390" d="M378,395.489v-90.6s10.491,8.859,9.712,20.442c-.763,11.583-7.6,15.234.045,23.78S395,367.7,391.166,373.341C383.354,384.864,386.6,392.2,378,395.489Z" transform="translate(333.525 940.195)" fill="#1abc9c"/>
    <path id="Path_391" data-name="Path 391" d="M377.513,384.239l18.766-56.449s-8.366,3.352-10.281,10.73,1.571,11.074-4.953,14.8-8.366,10.086-7.138,14.381C376.39,376.517,372.844,380.407,377.513,384.239Z" transform="translate(337.735 951.566)" fill="#e70f40"/>
    <path id="Path_392" data-name="Path 392" d="M371.7,384.239l18.766-56.449s4.7,7.692,1.826,14.756-7.887,7.917-4.894,14.815.658,13.08-2.888,15.8C377.22,378.731,377.729,383.969,371.7,384.239Z" transform="translate(343.564 951.566)" fill="#e70f40"/>
  </g>
</svg>
