<svg xmlns="http://www.w3.org/2000/svg" width="13" height="13" viewBox="0 0 13 13">
    <defs>
        <style>
            .cls-1{fill:#707070}
        </style>
    </defs>
    <path id="phone" d="M5.614 8.626a10.9 10.9 0 0 0 4.759 4.759l1.59-1.585a.725.725 0 0 1 .737-.181 8.2 8.2 0 0 0 2.578.412.722.722 0 0 1 .722.719v2.528a.722.722 0 0 1-.722.722A12.278 12.278 0 0 1 3 3.722.722.722 0 0 1 3.722 3H6.25a.722.722 0 0 1 .722.722A8.2 8.2 0 0 0 7.384 6.3a.725.725 0 0 1-.181.737z" class="cls-1" transform="translate(-3 -3)"/>
</svg>
