<svg id="whatsapp" xmlns="http://www.w3.org/2000/svg" width="16" height="16" viewBox="0 0 16 16">
  <path id="Path_725" data-name="Path 725" d="M16,7.794A7.869,7.869,0,0,1,4.349,14.619L0,16l1.418-4.183A7.715,7.715,0,0,1,.291,7.794,7.855,7.855,0,0,1,16,7.794ZM8.145,1.243A6.586,6.586,0,0,0,1.541,7.8,6.482,6.482,0,0,0,2.8,11.637L1.975,14.07l2.537-.806a6.611,6.611,0,0,0,10.237-5.47A6.585,6.585,0,0,0,8.145,1.243ZM12.112,9.59c-.049-.079-.177-.127-.369-.223s-1.14-.558-1.315-.62-.306-.1-.434.095-.5.621-.609.75-.224.144-.417.05a5.308,5.308,0,0,1-1.549-.948A5.748,5.748,0,0,1,6.347,7.37c-.113-.191-.011-.294.084-.389s.193-.223.289-.335a1.274,1.274,0,0,0,.193-.318A.356.356,0,0,0,6.9,5.992c-.048-.1-.433-1.035-.594-1.418s-.32-.319-.433-.319S5.629,4.24,5.5,4.24a.7.7,0,0,0-.513.238,2.138,2.138,0,0,0-.674,1.593A3.694,3.694,0,0,0,5.1,8.047a7.886,7.886,0,0,0,3.29,2.884c1.958.764,1.958.509,2.311.477A1.942,1.942,0,0,0,12,10.5,1.587,1.587,0,0,0,12.112,9.59Z" fill="#707070"/>
</svg>
