<svg xmlns="http://www.w3.org/2000/svg" width="16" height="11.2" viewBox="0 0 16 11.2">
  <path id="youtube" d="M8.4,13l4.152-2.4L8.4,8.2V13m9.248-6.264a8.271,8.271,0,0,1,.224,1.52c.056.64.08,1.192.08,1.672L18,10.6a15.894,15.894,0,0,1-.352,3.864,1.874,1.874,0,0,1-1.384,1.384,11.278,11.278,0,0,1-2.12.224c-1.04.056-1.992.08-2.872.08L10,16.2a32.745,32.745,0,0,1-6.264-.352,1.874,1.874,0,0,1-1.384-1.384,8.271,8.271,0,0,1-.224-1.52c-.056-.64-.08-1.192-.08-1.672L2,10.6a15.894,15.894,0,0,1,.352-3.864A1.874,1.874,0,0,1,3.736,5.352a11.279,11.279,0,0,1,2.12-.224c1.04-.056,1.992-.08,2.872-.08L10,5a32.745,32.745,0,0,1,6.264.352A1.874,1.874,0,0,1,17.648,6.736Z" transform="translate(-2 -5)" fill="#707070"/>
</svg>
